<svg version="1.2" xmlns="http://www.w3.org/2000/svg" viewBox="0 0 177 525" width="177" height="525">
	<style>
		.s0 { opacity: .97;fill: #e66360 } 
		.s1 { opacity: .91;fill: #f8616f } 
		.s2 { opacity: .95;fill: #ed958f } 
		.s3 { opacity: .93;fill: #962329 } 
		.s4 { opacity: .92;fill: #509331 } 
		.s5 { opacity: .98;fill: #a41f23 } 
		.s6 { opacity: .96;fill: #a9373b } 
		.s7 { opacity: .87;fill: #fbc344 } 
		.s8 { opacity: .97;fill: #e15043 } 
		.s9 { opacity: 1;fill: #941e45 } 
		.s10 { opacity: .95;fill: #f09c67 } 
		.s11 { opacity: .89;fill: #ef8e7f } 
		.s12 { opacity: .88;fill: #ec514f } 
		.s13 { fill: #fb282b } 
		.s14 { opacity: .93;fill: #fbc449 } 
		.s15 { opacity: .74;fill: #e1826e } 
		.s16 { opacity: .92;fill: #e45d51 } 
		.s17 { opacity: .78;fill: #fa9484 } 
		.s18 { opacity: .77;fill: #d34247 } 
		.s19 { opacity: .92;fill: #f5dbbc } 
		.s20 { opacity: .93;fill: #e54f3e } 
	</style>
	<path id="Mozek" class="s0" d="m66 0.91c-1.92 0.38-5.15 1.79-7.16 3.14-2.02 1.35-5.21 4.25-7.1 6.45-1.89 2.2-3.95 5.01-4.59 6.25-0.63 1.24-1.15 4.73-1.15 7.75 0 5.44 0.06 5.55 5.25 9.69 3.26 2.61 6.68 4.41 9.02 4.75 2.42 0.36 3.77 1.1 3.78 2.06 0 0.83 0.9 2.96 1.98 4.75 1.27 2.09 3.21 3.61 5.47 4.25 2.41 0.69 4.2 0.66 5.75-0.08 1.94-0.94 2.71-0.63 5.59 2.25 1.84 1.83 4.65 5.92 6.25 9.08 1.6 3.16 2.91 6.42 2.91 7.25 0 0.83 0.67 1.72 1.5 2 0.83 0.28 2.17 0.05 3-0.5 1.2-0.8 1.3-1.7 0.5-4.5-0.55-1.92-0.89-3.53-0.75-3.56 0.14-0.03 2.05-0.2 4.25-0.37 2.2-0.18 4.11-0.82 4.25-1.44 0.14-0.62 1.04-1.12 2-1.1 0.96 0.02 2.65-0.89 3.75-2.03 1.1-1.14 2.79-2.05 3.75-2.03 0.96 0.02 2.84-1.43 4.17-3.22 1.33-1.79 3.15-5.05 4.06-7.25 1.06-2.58 1.5-5.78 1.24-9-0.23-2.75-0.92-6.35-1.54-8-0.62-1.65-1.4-4.35-1.75-6-0.38-1.82-2.7-4.96-5.93-8-2.92-2.75-7.49-6.33-10.15-7.95-2.67-1.63-7.55-3.52-10.85-4.22-3.3-0.69-10.05-1.22-15-1.18-4.95 0.04-10.58 0.39-12.5 0.76z"/>
	<path id="Thyroidea" fill-rule="evenodd" class="s1" d="m75.86 97.96c0.9-0.03 2.13 0.53 2.72 1.25 0.6 0.71 1.57 2.64 2.17 4.29 0.6 1.65 1.35 4.24 1.67 5.75 0.53 2.52 0.93 2.73 4.71 2.5 4.08-0.25 4.16-0.33 6.25-6.15 1.17-3.26 3.02-6.4 4.11-7q2-1.1 3.41-0.09c0.77 0.54 2 3.47 2.73 6.49 0.81 3.36 1.08 7.64 0.69 11-0.48 4.16-1.3 6.17-3.4 8.25-1.52 1.51-3.59 2.76-4.59 2.77-1.01 0.01-3.18-1.35-4.83-3.02-1.65-1.67-3.45-3.04-4-3.04-0.55 0-2.35 1.37-4 3.04-1.65 1.67-3.79 3.03-4.75 3.02-0.96-0.01-3.12-1.26-4.79-2.77-2.84-2.57-3.05-3.24-3.17-10.25-0.08-4.12 0.23-8.85 0.67-10.5 0.45-1.65 1.25-3.56 1.79-4.25 0.53-0.69 1.71-1.27 2.61-1.29zm11.54 1.25c1.07 0.16 2.04 0.82 2.16 1.46 0.12 0.67-0.6 0.99-1.67 0.75-1.04-0.23-2.59 0.14-3.43 0.83-0.99 0.79-1.61 0.87-1.7 0.2-0.09-0.58 0.48-1.61 1.27-2.29 0.79-0.68 2.31-1.11 3.37-0.95z"/>
	<path id="Pharynx" class="s2" d="m53.83 47.91c-3.41 0.43-5.72 1.53-8.57 4.09-2.15 1.93-4.43 4.51-5.08 5.75-0.65 1.24-1.18 2.93-1.18 3.75 0 0.83 1.35 1.95 3 2.5 2.86 0.95 2.98 1.21 2.5 5.5-0.44 3.93-0.22 4.64 1.75 5.62l2.25 1.12-5 3.47c4.14 2.48 4.5 3.34 3.99 5.29-0.37 1.41-0.08 3.71 0.68 5.27 0.76 1.59 2.39 2.99 3.83 3.28 1.38 0.28 5.65 0.05 9.5-0.5 3.85-0.56 9.03-1.04 11.5-1.07 2.54-0.04 4.97 0.5 5.57 1.23 0.59 0.71 1.6 3.09 2.25 5.29 0.64 2.2 1.29 5.8 1.43 8l0.25 4h9c-0.05-21.7-0.44-33.85-0.89-41-0.64-10.11-1.23-13.56-2.66-15.5-1.6-2.17-2.5-2.47-6.89-2.25-4.36 0.22-5.34-0.1-7.06-2.25-1.81-2.26-2.65-2.48-8.75-2.34-3.71 0.08-8.85 0.42-11.42 0.75z"/>
	<path id="Ledviny" fill-rule="evenodd" class="s3" d="m132 266.06c1.93-0.02 5.28 0.98 7.45 2.21 2.17 1.22 5.23 4.03 6.78 6.23 1.56 2.2 3.26 5.8 3.78 8 0.52 2.2 0.95 7.37 0.96 11.5 0.01 5.73-0.53 8.68-2.29 12.5-1.33 2.89-3.76 6.03-5.74 7.43-1.89 1.33-5.01 2.63-6.94 2.88-1.93 0.25-4.74 0.17-6.25-0.18-1.51-0.34-4.16-1.87-5.88-3.38-1.72-1.51-3.71-4.1-4.42-5.75-1.27-2.97-1.29-2.94-1.37 2.25-0.04 2.89-0.53 5.25-1.08 5.25-0.61 0-0.9-3.3-0.75-8.4 0.2-6.79 0.63-8.8 4.25-12.67l-2.25 0.04c-2.03 0.03-2.22-0.39-1.97-4.22 0.15-2.34 0.71-4.18 1.25-4.09 0.53 0.09 2.77 0.53 8.97 1.77l-3.25-3.21c-2.23-2.21-3.25-4.16-3.25-6.22 0-1.65 0.67-4.35 1.5-6 0.83-1.65 2.74-3.66 4.25-4.46 1.51-0.8 4.32-1.47 6.25-1.48zm-7.84 24.6c0.74-0.28-0.01-0.49-1.66-0.47-1.65 0.03-2.25 0.25-1.34 0.5 0.91 0.26 2.26 0.24 3-0.03zm-4.44 12.09c0.43-0.41 0.43-1.09 0-1.5-0.43-0.41-0.78-0.07-0.78 0.75 0 0.82 0.35 1.16 0.78 0.75zm-76.72-35.72c1.92-0.01 4.96 0.88 6.75 1.97 1.79 1.1 3.7 3.12 4.25 4.5 0.55 1.37 1 3.62 1 5 0 1.37-0.56 3.62-1.25 5-0.69 1.37-2.15 2.93-3.25 3.47-1.44 0.7-0.61 0.81 8-0.17l0.25 4.1c0.19 3.09-0.12 4.1-1.25 4.1-1.31 0-1.32 0.34-0.08 2.75 0.78 1.51 1.74 5 2.13 7.75 0.39 2.75 0.43 6.24 0.08 7.75-0.35 1.51-1.08 2.75-1.63 2.75-0.55 0-1.05-2.81-1.12-6.25-0.06-3.44-0.31-5.35-0.55-4.25-0.24 1.1-0.87 3.12-1.39 4.5-0.52 1.37-2.86 3.77-5.19 5.32-3.7 2.46-4.96 2.77-9.75 2.37-4.94-0.41-5.92-0.9-9.62-4.82-2.5-2.65-4.6-6.14-5.36-8.87-0.76-2.72-1.06-7.66-0.77-12.5 0.32-5.31 1.17-9.34 2.53-12 1.12-2.2 3.55-5.4 5.38-7.12 1.84-1.71 4.24-3.61 5.34-4.22 1.1-0.6 3.58-1.11 5.5-1.13zm11.25 24.55c0.69-0.23 0.12-0.42-1.25-0.42-1.38 0-1.94 0.19-1.25 0.42 0.69 0.23 1.81 0.23 2.5 0z"/>
	<path id="Žlučník" class="s4" d="m59.57 242.08c-2.17 1.08-3.85 2.41-3.75 2.94 0.1 0.54-1.97 3.54-4.6 6.68-3.82 4.55-4.87 6.62-5.25 10.34-0.31 3.06 0.04 5.55 1.03 7.3 0.83 1.46 2.51 3.1 3.75 3.66 1.24 0.55 4.27 1 6.75 1 4.3 0 4.6-0.19 6.62-4.25 1.16-2.34 2.72-8.3 3.47-13.25 0.74-4.95 1.83-9.45 2.4-10 0.57-0.55 1.04-1.79 1.03-2.75-0.01-0.97-1.03-2.01-2.27-2.33-1.24-0.32-2.92-0.74-3.75-0.95-0.83-0.2-3.27 0.52-5.43 1.61z"/>
	<path id="Játra" class="s5" d="m34.5 208.85c-1.65 0.42-5.22 1.86-7.93 3.21-2.72 1.34-6.77 4.49-9 7-2.24 2.51-4.63 6.33-5.3 8.5-0.68 2.17-1.24 6.42-1.25 9.44 0 3.03 0.44 8.2 1 11.5 0.55 3.3 1.43 10.05 1.96 15 0.72 6.75 1.4 9.31 2.74 10.24 0.98 0.69 2.9 0.97 4.28 0.63 1.37-0.33 3.62-1.3 5-2.16 1.37-0.85 4.52-1.63 7-1.75 3.65-0.16 5.02-0.79 7.25-3.33 1.51-1.72 2.74-3.69 2.72-4.38-0.02-0.69 1.67-1.97 3.75-2.84 2.08-0.88 5.13-1.39 6.78-1.14 1.65 0.26 4.58-0.02 6.5-0.62 1.92-0.59 4.4-2.01 5.5-3.14 1.1-1.14 2.34-2.06 2.75-2.04 0.41 0.02 0.64 0.54 0.5 1.15-0.14 0.62 0.31 1.3 1 1.5 0.69 0.21 1.71-0.86 2.26-2.37 0.88-2.4 1.62-2.79 5.75-3.05 2.61-0.16 7.21-1.45 10.24-2.85 3.84-1.78 8.77-5.78 16.31-13.2 10.05-9.9 10.79-10.89 10.5-14.1-0.24-2.73-1.04-3.88-3.81-5.5-3.2-1.87-5.28-2.06-24-2.18-16.83-0.11-21.31-0.44-25-1.86-2.85-1.1-8.17-1.86-14.5-2.08-5.5-0.19-11.35 0-13 0.42z"/>
	<path id="Srdce" class="s6" d="m73.9 150.5c-2.05 1.14-2.35 1.96-2.09 5.67 0.27 3.72-0.32 5.31-4.25 11.33-2.63 4.04-4.8 8.69-5.13 11-0.32 2.2-0.3 7.15 0.05 11 0.43 4.84 1.46 8.52 3.32 11.91 1.57 2.86 4.79 6.46 7.7 8.63 2.75 2.05 7.25 4.9 10 6.34 2.75 1.44 5.79 2.62 6.75 2.62 0.96 0 2.99-0.62 4.5-1.37 1.81-0.89 3.86-3.64 6-8 1.79-3.65 3.74-8.99 4.34-11.88 0.79-3.79 0.79-7.12 0-12-0.73-4.52-0.76-7.24-0.09-8.25 0.55-0.82 0.73-2.29 0.4-3.25-0.44-1.25-0.22-1.55 0.75-1.05 0.74 0.38 2.25 0.05 3.35-0.74 1.53-1.09 1.7-1.6 0.69-2.19-0.72-0.42-1.17-1.67-1-2.77 0.23-1.48-0.35-2.1-2.19-2.38-1.38-0.21-3.27-1.33-4.22-2.5-0.94-1.17-1.73-3.13-1.75-4.37-0.02-1.24-0.59-2.54-1.28-2.9-0.69-0.36-1.77 0.2-2.41 1.25-1.06 1.73-1.22 1.61-1.75-1.35-0.36-1.96-1.18-3.25-2.09-3.25-0.83 0-1.5 0.89-1.5 2 0 1.1-0.23 2-0.5 2-0.28 0-1.29-0.97-2.25-2.16-0.97-1.19-2.31-1.86-3-1.5-0.69 0.36-1.03 1.56-0.75 2.66 0.43 1.71 0 2-3 2-3.24 0-3.54-0.26-4-3.5-0.28-1.93-0.88-3.69-1.35-3.91-0.47-0.23-1.93 0.18-3.25 0.91z"/>
	<path id="Pankreas" class="s7" d="m107.5 265.5c-1.1 0.77-7.17 2.72-13.5 4.33-6.33 1.62-13.52 3.33-15.99 3.81-3.94 0.75-4.55 1.22-5 3.85-0.34 1.96-1.2 3.11-2.51 3.35-1.1 0.2-2.8 1.11-3.78 2.01-1.24 1.15-1.78 3.09-1.75 6.4 0.02 3.47 0.64 5.44 2.28 7.31 1.45 1.66 3.67 2.75 6.25 3.09 3.36 0.44 4.68 0.03 8.25-2.56 3.4-2.47 4.4-3.92 5-7.23 0.41-2.27 1.42-4.48 2.25-4.9 0.83-0.43 4.42-2 8-3.49 3.58-1.5 7.56-3.68 8.85-4.85 1.29-1.16 3.2-3.81 4.25-5.87 1.04-2.06 1.68-4.43 1.4-5.25-0.28-0.82-0.84-1.48-1.25-1.45-0.41 0.03-1.65 0.68-2.75 1.45z"/>
	<path id="Plíce" class="s8" d="m36.3 133.52c-2.31 1.38-5.74 4.63-7.63 7.24-1.88 2.61-4.67 7.21-6.19 10.24-1.52 3.02-4.23 9.32-6.02 14-1.79 4.68-4.03 12.32-4.98 17-1.22 6.08-1.53 10.64-1.06 16 0.36 4.12 1.29 9.52 2.07 12 0.77 2.47 2.17 5.18 3.11 6 1.02 0.9 3.33 1.42 5.8 1.31 2.25-0.11 6.35-0.95 9.1-1.87 2.75-0.92 6.24-2.52 7.75-3.56 1.51-1.03 3.88-1.88 5.25-1.88 1.38 0 4.19-0.7 6.25-1.56 2.06-0.86 4.09-2.1 4.51-2.75 0.42-0.66 0.74-10.64 0.71-22.19-0.04-11.55 0.19-21.23 0.51-21.5 0.32-0.28 0.56-2.53 0.53-5-0.03-3.08-0.32-4.03-0.92-3q-0.88 1.48-1.59-7c-0.39-4.68-1.05-9.4-1.46-10.5-0.42-1.1-1.5-2.79-2.4-3.75-1-1.07-3.1-1.75-5.39-1.74-2.2 0.01-5.49 1.04-7.95 2.51zm84.3-2.27c-1.27 1.24-2.82 4.05-3.45 6.25-0.63 2.2-1.14 6.59-1.14 9.75-0.01 3.16-0.46 5.75-1.01 5.75-0.55 0-1.19-0.56-1.42-1.25-0.23-0.69-0.46 3.7-0.51 9.75-0.06 6.79 0.46 12.91 1.34 16 0.78 2.75 1.76 9.27 2.16 14.5 0.6 7.7 1.13 9.9 2.83 11.59 1.19 1.18 4.93 2.72 8.6 3.54 5.01 1.11 7.65 2.42 11.5 5.69 2.93 2.5 6.45 4.5 8.5 4.84 1.93 0.33 4.18 0.16 5-0.38 0.82-0.53 2.63-3.63 4-6.87 2.29-5.41 2.49-7.06 2.35-19.41-0.11-10.29-0.66-15.4-2.29-21.5-1.18-4.4-3.99-11.38-6.24-15.5-2.24-4.13-5.44-9.53-7.1-12-1.66-2.48-4.19-5.78-5.62-7.34-1.43-1.56-3.84-3.47-5.35-4.25-1.51-0.78-4.35-1.41-6.3-1.41-2.32 0-4.33 0.77-5.85 2.25z"/>
	<path id="Slezina" class="s9" d="m139.27 210.97c-1.23 0.46-3.37 2.23-4.75 3.94-1.76 2.15-2.52 4.3-2.52 7.09 0 2.2 0.86 5.69 1.92 7.75l1.91 3.75c-10.33 2.81-14.01 3.41-14.83 3.14-0.83-0.26-2.85-0.74-4.5-1.07q-3-0.6-1.5 0.3c0.82 0.5 3.3 1.22 5.5 1.6q4 0.7 8.75-0.89c4.24-1.41 5.07-1.42 7.75-0.08 1.65 0.82 2.77 1.95 2.5 2.5-0.28 0.55-0.05 1 0.5 1 0.55 0 0.77 0.45 0.5 1-0.28 0.55-0.05 1.22 0.5 1.5 0.55 0.28 0.98 2.86 0.97 5.75-0.03 3.75 0.54 6.03 2 8 1.7 2.31 2.77 2.75 6.63 2.75 3.85 0 5.13-0.53 7.87-3.25 2.21-2.2 3.97-5.51 5.42-10.25 1.19-3.85 2.14-9.59 2.13-12.75-0.01-3.16-0.62-7.21-1.35-9-0.73-1.79-3.32-4.99-5.75-7.12-2.43-2.12-5.88-4.49-7.67-5.25-1.79-0.76-4.71-1.35-6.5-1.32-1.79 0.04-4.25 0.45-5.48 0.91z"/>
	<path id="Žaludek" class="s10" d="m105.5 216.67c-0.46 0.36-0.76 2.05-0.68 3.75 0.09 1.69 0.81 5.33 1.6 8.08 0.79 2.75 2.16 5.68 3.05 6.5 0.98 0.91 1.61 3.08 1.6 5.5-0.01 3.09-0.8 4.91-3.43 8-3.34 3.91-3.57 4-10.28 4.13-3.77 0.08-8.89 0.56-11.36 1.07-2.47 0.51-5.51 1.46-6.75 2.12-1.24 0.65-3.15 2.98-4.25 5.18-1.1 2.2-2 5.35-2 7 0 1.65 0.67 4.58 1.5 6.5 1.42 3.32 1.69 3.47 5.25 2.87 2.06-0.35 3.86-0.8 4-1 0.14-0.2-0.46-1.83-1.33-3.62-0.87-1.79-1.32-3.81-1-4.5 0.32-0.69 1.14-1.24 1.83-1.22 0.69 0.02 2.15-0.89 3.25-2.01l2-2.05c4.56 8.41 6.33 10.1 10.09 11.94 4.06 1.99 5.94 2.32 10.91 1.91 3.47-0.29 8.53-1.66 12-3.25 3.3-1.51 7.96-4.16 10.36-5.9 2.39-1.75 6.35-5.87 8.78-9.17 3.03-4.1 4.79-7.74 5.57-11.5 0.87-4.19 0.86-6.57-0.05-10-0.76-2.83-2.5-5.71-4.68-7.75-1.92-1.79-4.94-3.53-6.73-3.86-1.79-0.34-4.82-0.35-6.75-0.02-1.92 0.33-5.08 1.74-7 3.15-3.31 2.41-3.57 2.45-4.8 0.76-0.72-0.98-2.07-4.37-3-7.53-1.5-5.07-2-5.75-4.28-5.75-1.42 0-2.96 0.3-3.42 0.67z"/>
	<path id="Tračník" fill-rule="evenodd" class="s11" d="m59.5 306.62c1.65 0.25 5.08 0.78 7.63 1.17 2.55 0.39 5.47 1.49 6.5 2.43 1.03 0.95 2.88 1.74 4.12 1.75 1.24 0.02 2.81 0.59 3.5 1.28 0.69 0.69 3.16 1.36 5.5 1.5 2.34 0.14 5.04 0.28 6 0.31 0.96 0.03 3.1-0.14 4.75-0.39 1.65-0.24 4.69-1.17 6.75-2.06 2.06-0.88 4.31-1.61 5-1.61 0.69 0.01 1.81-0.89 2.5-2 0.74-1.19 2.37-2.02 4-2.04 1.51-0.03 3.42 0.67 4.25 1.54 0.83 0.87 1.95 1.56 2.5 1.52 0.55-0.04 2.13 1.1 3.5 2.54 2.19 2.28 2.52 3.56 2.64 10.27 0.09 5.48-0.32 8.38-1.45 10.17-0.88 1.37-1.69 4.3-1.82 6.5-0.13 2.2-0.5 6.25-0.84 9-0.33 2.75-0.7 7.48-0.82 10.5-0.11 3.02 0.34 6.62 1.01 8 0.84 1.73 0.94 3.58 0.31 6-0.5 1.93-0.83 5.1-0.72 7.05 0.16 2.97-0.64 4.5-4.81 9.3-3.73 4.29-5.82 5.86-8.25 6.2-1.79 0.25-3.25 0.9-3.25 1.45 0 0.55-1.01 1.91-2.25 3.02-1.3 1.17-3.63 2.01-5.5 2-1.79-0.01-5.05 0.54-7.25 1.23-3.26 1.02-4.01 1.72-4.02 3.75-0.02 1.37-1.04 6.32-2.28 11-2.03 7.63-2.5 8.5-4.62 8.5-1.98 0-2.57-0.79-3.7-5-0.74-2.75-1.81-7.02-2.39-9.5-0.58-2.48-0.75-6.07-0.38-8 0.37-1.93 1.62-5.2 2.78-7.28 1.16-2.07 3.13-4.1 4.39-4.5 1.25-0.39 2.48-1.28 2.75-1.97 0.26-0.69 1.71-1.25 3.22-1.26 1.51 0 4.1-0.9 5.75-1.99 1.65-1.09 3.9-2 5-2.03 1.1-0.02 3.24-1.14 4.75-2.5 1.51-1.36 2.75-2.92 2.75-3.47 0-0.55 1.01-1.64 2.25-2.41 1.24-0.78 2.54-2.24 2.9-3.25 0.36-1.01 0.18-3.64-0.4-5.84-0.86-3.27-0.75-4.5 0.6-6.75 1.11-1.85 1.4-3.58 0.9-5.28-0.41-1.38-1.31-2.73-2-3-0.69-0.26-1.25-1.37-1.25-2.47 0-1.1 0.62-3.01 1.39-4.25 0.76-1.24 1.66-5.74 2.61-17.75h-4.5c-2.47 0-5.51 0.51-6.75 1.13-1.25 0.62-6.25 1.05-11.25 0.97-6.28-0.11-9.53-0.6-10.75-1.63-0.96-0.81-2.2-1.24-2.75-0.97-0.55 0.27-2.24-0.11-3.75-0.86-1.51-0.75-4.33-1.92-6.25-2.6-1.92-0.68-5.1-1.53-7.06-1.89-1.96-0.36-4.32-1.21-5.25-1.9-1.52-1.13-1.75-0.68-2.27 4.5-0.37 3.62-0.17 6.12 0.52 6.75 0.6 0.55 1.09 1.56 1.08 2.25-0.01 0.69-1.03 2.09-4.52 5l1.87 4.88c1.05 2.71 1.67 6.2 1.4 7.87-0.26 1.65 0.16 4.57 0.95 6.5 0.78 1.93 1.28 4.82 1.1 6.44-0.26 2.43 0.11 3.04 2.18 3.55 1.37 0.33 3.06 1.71 3.74 3.06 0.67 1.35 1.24 3.69 1.25 5.2 0.01 1.92 0.54 2.77 1.76 2.81 1.49 0.06 1.45 0.19-0.25 0.89-1.1 0.45-2.9 1.81-6 5.24l2.75 2.4c1.51 1.33 2.75 3.09 2.75 3.91 0 0.83-1.45-0.26-3.25-2.45-2.79-3.39-3.82-3.95-7.25-3.96-2.43-0.01-5.08-0.82-6.75-2.06-2.36-1.74-2.75-2.74-2.75-7.03 0-2.75-0.45-5.23-1-5.5-0.57-0.29-0.94-4.45-0.87-9.75 0.07-5.09 0.47-9.93 0.88-10.75 0.4-0.82 0.41-2.4 0-3.5-0.41-1.1-0.35-3.01 0.12-4.25 0.56-1.45 0.43-3.11-0.38-4.69-1.05-2.06-0.97-2.84 0.5-5 1.22-1.78 1.47-3.09 0.84-4.31-0.5-0.96-0.93-4.9-0.97-8.75-0.05-5.4 0.33-7.36 1.66-8.59 0.95-0.87 3.07-2.08 4.72-2.69 1.65-0.61 3.9-1.32 5-1.59 1.1-0.26 3.35-0.27 5-0.01zm-6.21 31.57c0.19 0.38 0.24 1.28 0.11 2-0.13 0.72-0.29 0.41-0.35-0.69-0.06-1.1 0.05-1.69 0.24-1.31zm57.71 15.81c0.55 0 1 0.45 1 1 0 0.55-0.45 1-1 1-0.55 0-1-0.45-1-1 0-0.55 0.45-1 1-1z"/>
	<path id="Tenké střevo" class="s12" d="m52.51 318.69c-1.1 0.25-1.88 1.1-1.75 1.88 0.13 0.79 0.58 1.43 0.99 1.44 0.41 0.01 0.53 2.2 0.25 4.88-0.32 3.13-0.06 5.35 0.75 6.24 1.01 1.11 0.86 1.75-0.79 3.37-1.11 1.1-2.01 3.01-1.99 4.25 0.02 1.24 0.76 3.71 1.64 5.5 0.89 1.79 1.41 4.6 1.17 6.25-0.24 1.65 0.04 4.42 0.64 6.15 0.59 1.72 1.42 3.41 1.83 3.75 0.41 0.33 0.23 1.39-0.4 2.35-0.63 0.96-0.86 2.54-0.5 3.5 0.36 0.96 1.89 2.04 3.4 2.4 1.51 0.36 3.08 1.15 3.48 1.75 0.41 0.61 0.75 2.79 0.75 4.85 0.02 3.62 0.14 3.75 3.52 3.75 2.01 0 4.03 0.68 4.75 1.6 0.69 0.87 2.26 2.67 3.5 4 1.53 1.63 3.35 2.4 5.67 2.4 2.47 0 4.26-0.84 6.43-3 1.65-1.65 3.37-3.01 3.82-3.02 0.46-0.01 2.4 1.13 4.33 2.52 2.06 1.49 4.84 2.53 6.75 2.52 2.04-0.01 3.53-0.63 4-1.67 0.41-0.91 1.76-2.04 3-2.5 1.24-0.47 2.24-1.64 2.22-2.6-0.01-0.96 1-2.24 2.25-2.84 1.28-0.61 2.55-2.37 2.9-4 0.35-1.6 0.26-4.48-0.19-6.41-0.6-2.55-0.43-3.91 0.6-5 0.78-0.82 1.43-2.96 1.44-4.75 0.02-1.94-0.77-4.05-1.97-5.25-1.1-1.1-2.02-2.34-2.04-2.75-0.03-0.41 0.67-1.43 1.54-2.25 0.87-0.82 1.57-2.51 1.54-3.75-0.02-1.24-0.6-3.37-1.29-4.73-1.07-2.11-0.99-2.74 0.53-4.25 1.11-1.09 1.68-2.91 1.5-4.77-0.26-2.77-0.6-3.02-4.53-3.25-2.38-0.14-5.24 0.38-6.5 1.18-1.58 1-5.24 1.41-12.25 1.38-9.11-0.05-10.04-0.23-10.5-2.03-0.4-1.58-1.06-1.86-3.25-1.38-1.79 0.39-3.27 0.08-4.25-0.9-0.82-0.82-3.07-1.5-5-1.5-2.22 0-3.68-0.55-4-1.5-0.32-0.95-1.78-1.5-4-1.5-1.92 0-4.17-0.68-5-1.5-0.82-0.82-1.84-1.45-2.25-1.38-0.41 0.06-1.65 0.32-2.74 0.57z"/>
	<path id="Močový měchýř" class="s13" d="m78.38 365.25c-1.71 0.69-4.3 2.26-5.75 3.5-1.47 1.26-2.41 2.91-2.13 3.75 0.28 0.82 0.16 1.29-0.25 1.04-0.41-0.25-1.31 0.65-2 2-0.88 1.72-0.95 3.06-0.25 4.46 0.55 1.1 1 3.13 1 4.5 0 1.38 1.46 4.28 3.25 6.45 1.79 2.17 3.7 3.98 4.25 4.03 0.55 0.05 2.01 0.97 3.25 2.05 1.24 1.08 2.25 2.65 2.25 3.47 0 0.96 0.81 1.41 2.25 1.25q2.25-0.25 2.5-2.5c0.14-1.27 1.45-2.89 3-3.72 1.51-0.81 4.33-3.1 6.25-5.08 2.72-2.8 3.66-4.75 4.2-8.77 0.39-2.85 0.49-6.31 0.22-7.68-0.3-1.56-2.25-3.7-5.2-5.7-2.85-1.94-6.5-3.42-9.22-3.75-2.58-0.31-5.83-0.01-7.62 0.7z"/>
	<path id="Thymus" class="s14" d="m73 152l4-18 3-4 4 2 1-4h4l6 13 2 1 1 7v8l-3 3h-4l-5-3h-2l-1 2h-8l-2-4z"/>
	<path id="Ovária" fill-rule="evenodd" class="s15" d="m116.37 404.99c1.72 0 5.95 0.34 9.39 0.75 3.95 0.48 6.26 1.22 6.25 2.01-0.01 0.93-2.49 1.19-9.74 1-8.62-0.22-9.77-0.05-10 1.5-0.24 1.52 0.42 1.7 4.98 1.33 3.46-0.27 6.02 0.07 7.5 1 1.95 1.23 2.58 1.22 4.75-0.08 1.37-0.82 2.72-1.27 3-1 0.28 0.27-1.41 1.86-3.75 3.51-2.34 1.66-5.38 3.27-6.75 3.57-1.69 0.37-4.04-0.36-7.25-2.27-2.98-1.76-4.99-3.74-5.39-5.31-0.47-1.88-0.07-2.93 1.63-4.25 1.24-0.96 3.66-1.75 5.38-1.76zm48.88 0.19c3.65-0.14 5.37 0.34 7.41 2.07 1.8 1.53 2.44 2.81 2 4-0.36 0.96-2.8 3.1-5.41 4.74-3.64 2.3-5.45 2.85-7.75 2.38-1.65-0.34-4.35-1.55-6-2.7-1.65-1.14-3.33-2.55-3.73-3.12-0.41-0.58-0.75-2.29-0.75-3.8-0.02-2.57 0.29-2.77 4.73-3.07 2.61-0.18 6.89-0.4 9.5-0.5zm-11.24 7.32c1.95 1.88 2.25 1.9 4.79 0.39 1.84-1.09 4.37-1.49 7.95-1.25 4.16 0.29 5.25 0.05 5.25-1.14 0-0.82-0.56-1.56-1.25-1.64-0.69-0.07-5.19-0.19-10-0.25-5.22-0.07-8.76 0.29-8.78 0.89-0.02 0.55 0.9 1.9 2.04 3zm-13.51 32.5c0.27 0 0.5 0.23 0.5 0.5 0 0.27-0.23 0.5-0.5 0.5-0.28 0-0.5-0.23-0.5-0.5 0-0.27 0.22-0.5 0.5-0.5zm2.42-0.03c0.78 0.02 1.11 0.37 0.75 0.78-0.37 0.41-1.01 0.4-1.42-0.03-0.41-0.43-0.11-0.76 0.67-0.75z"/>
	<path id="Děloha" class="s16" d="m135 403.87c-2.91 1.55-3.51 2.44-3.56 5.25-0.03 1.86 0.2 3.61 0.5 3.88 0.31 0.27 1.57 2.64 2.81 5.25 1.79 3.78 2.12 5.72 1.61 9.5-0.45 3.3-0.07 6.82 1.25 11.54 1.7 6.13 2.12 6.77 4.26 6.5 1.94-0.24 2.71-1.38 4.26-6.29 1.36-4.34 1.7-7.38 1.23-11-0.53-4.03-0.22-5.97 1.63-10 1.26-2.75 2.5-6.8 2.76-9 0.44-3.78 0.27-4.1-3.14-5.75-1.99-0.96-5.07-1.75-6.86-1.75-1.79-0.01-4.82 0.84-6.75 1.87z"/>
	<path id="Testes" class="s17" d="m63.78 406c-0.29 0.82-1.49 4.65-2.67 8.5-1.3 4.25-2.13 9.65-2.12 13.75 0 4.17-0.37 6.56-0.99 6.25-0.55-0.27-1.79-0.1-2.75 0.38-0.96 0.49-2.31 2.62-2.98 4.75-0.68 2.13-1.26 4.77-1.29 5.87-0.02 1.1 0.76 2.78 1.74 3.72 0.98 0.95 2.34 1.74 3.03 1.75 0.69 0.02 2.39-1.21 3.79-2.72 2.52-2.72 2.54-2.88 1.86-14.25-0.62-10.26-0.46-12.25 1.52-18.5 1.21-3.85 2.03-7.9 1.8-9-0.31-1.52-0.54-1.64-0.94-0.5zm-30.15 1.75c-0.25 0.41 0.43 3.23 1.51 6.25 1.09 3.02 2.06 8.43 2.17 12 0.1 3.57-0.2 9.2-0.68 12.5-0.81 5.62-0.7 6.2 1.75 9.25 1.44 1.79 3.26 3.25 4.05 3.25 0.78 0 2.13-0.68 3-1.5 0.86-0.82 1.55-2.96 1.52-4.75-0.02-1.79-0.83-4.82-1.78-6.75-1.13-2.28-2.42-3.48-3.7-3.45-1.76 0.05-1.97-0.64-2.01-6.5-0.03-3.63-1-9.78-2.18-13.8-1.18-3.99-2.37-7.25-2.66-7.25-0.29 0-0.73 0.34-0.99 0.75z"/>
	<path id="Prostata" class="s18" d="m42.1 411c-0.87 2.36-0.79 3.48 0.37 5.25 0.8 1.24 2.04 3.02 2.75 3.96 0.7 0.94 1.84 1.73 2.53 1.75 0.69 0.02 3.05-1.31 5.25-2.96 2.63-1.97 3.99-3.77 3.97-5.25-0.02-1.24-0.58-3.02-1.25-3.96-0.9-1.26-2.71-1.72-6.87-1.75-5.39-0.04-5.71 0.1-6.75 2.96z"/>
	<path id="Skelet" fill-rule="evenodd" class="s19" d="m81.5 457.5l0.8 6.5c0.44 3.57 1.45 7.4 2.24 8.5 0.8 1.1 2.36 3.23 3.47 4.74 1.46 1.99 2.05 4.46 2.16 9 0.11 4.95-0.44 7.52-2.65 12.26-1.66 3.58-3.03 8.62-4.02 19h-8.99l-0.76-5.75c-0.41-3.16-1.21-6.54-1.78-7.5-0.73-1.23-0.8 0.58-0.25 6.13 0.75 7.55 0.7 7.87-1.22 7.49-1.56-0.3-2.37-1.93-3.68-7.38-0.93-3.84-2.11-7.67-2.64-8.49-0.52-0.82-0.66-3.6-0.31-6.17 0.35-2.58 0.97-4.49 1.38-4.25 0.41 0.23 1.2-0.26 1.75-1.08 0.75-1.12 0.49-1.82-1-2.75-1.43-0.89-2.01-2.33-2-5 0-2.86 0.81-4.64 3.41-7.5 2.87-3.15 3.53-4.78 4.13-10.25 0.4-3.57 0.94-6.86 1.2-7.3 0.26-0.44 2.34-0.67 8.76-0.2zm7.17 31.25c0.36-0.41 0.03-0.76-0.75-0.78-0.78-0.01-1.08 0.32-0.67 0.75 0.41 0.43 1.05 0.44 1.42 0.03z"/>
	<path id="Svaly" class="s20" d="m78.58 460.57c-0.32 0.24 0.8 1.67 2.48 3.18 2.11 1.9 3.81 5.08 5.49 10.25 1.33 4.13 3.69 9.52 5.25 12 1.56 2.48 5.24 6.52 8.17 9 2.94 2.48 7.29 6.41 9.68 8.75 2.39 2.34 4.94 5.71 5.67 7.5l1.32 3.25c1.72-4.95 1.78-8.28 1.21-12.5-0.48-3.57-1.59-8.98-2.47-12-0.87-3.02-2.62-7.52-3.87-10-1.26-2.48-4.58-6.64-7.4-9.25-2.81-2.61-7.47-5.88-10.36-7.26-2.89-1.38-7.35-2.7-9.92-2.93-2.58-0.23-4.94-0.23-5.25 0.01z"/>
</svg>