<svg version="1.2" xmlns="http://www.w3.org/2000/svg" viewBox="0 0 507 810" width="507" height="810">
	<style>
		.s0 { fill: #7bcee9 } 
		.s1 { fill: #fbff8b } 
	</style>
	<path id="BASE-R-AFS" class="s0" d="m229.5 4.12c-6.05 0.46-15.72 1.74-21.5 2.84-5.78 1.09-16.8 3.82-24.5 6.06-7.7 2.24-16.7 5-20 6.14-3.3 1.14-9.71 3.6-14.25 5.46-4.54 1.86-12.86 5.69-18.5 8.52-5.64 2.83-14.3 7.65-19.25 10.72-4.95 3.07-13.28 8.8-18.5 12.74-5.22 3.94-13.82 11.38-19.1 16.53-5.28 5.15-12.15 12.52-15.25 16.37-3.67 4.55-5.32 7.35-4.69 8q0.96 0.99 2.67-0.5 1.71-1.5 10.29-1.9c7.53-0.36 9.26-0.1 14.08 2.09 3.03 1.37 7 4.03 8.82 5.9 1.83 1.88 4.08 3.49 5 3.59 0.93 0.1 2.47-0.24 3.43-0.75 0.96-0.51 3.89-4.19 6.5-8.18 2.61-3.99 9.03-11.68 14.25-17.1 5.22-5.41 12.2-11.74 15.5-14.07 3.3-2.33 8.7-5.73 12-7.56 4.88-2.7 6.33-3.11 7.75-2.17 1.38 0.91 3.16 0.65 8.5-1.26 3.71-1.32 8.1-2.71 9.75-3.09 1.65-0.38 4.13-0.95 5.5-1.27 1.38-0.32 7.45-0.56 13.5-0.53 9.51 0.04 12.29 0.46 20.5 3.14 5.22 1.7 12.2 4.85 15.5 7 3.3 2.15 6.9 4.92 8 6.15 1.1 1.23 4.03 3.97 6.5 6.1 2.47 2.13 5.68 4 7.13 4.14 1.44 0.15 3.47 1.06 4.5 2.03 1.78 1.68 1.94 1.68 3.49 0 0.9-0.97 2.21-4.91 2.93-8.76 0.71-3.85 1.88-7.67 2.6-8.5 0.71-0.83 1.3-1.95 1.3-2.5 0-0.55-0.78-1.83-1.73-2.85-1.36-1.48-1.69-3.54-1.58-10 0.07-4.48-0.14-8.6-0.49-9.15-0.34-0.55-0.65-1.45-0.7-2-0.04-0.55 0.26-1.45 0.67-2 0.41-0.55 0.84-3.02 0.96-5.5 0.11-2.48 0.82-5.51 1.56-6.75 0.78-1.28 1.25-4.36 1.11-7.15-0.16-3.2-1.04-5.99-2.5-8l-2.25-3.1c-14.34 0.22-23.45 0.66-29.5 1.12z"/>
	<path id="BASE-L-AFS" class="s0" d="m262.97 3.5c-0.47 0.56-0.46 1.67 0.02 2.5 0.48 0.83 0.7 1.72 0.48 2-0.22 0.28-0.62 1.63-0.89 3-0.27 1.38-0.18 2.95 0.19 3.5 0.37 0.55 0.8 1.79 0.95 2.75 0.15 0.96-0.62 2.65-1.72 3.75-1.65 1.65-1.96 3.12-1.75 8.44 0.14 3.55 0.82 7.03 1.52 7.75 0.69 0.72 1.26 2.66 1.26 4.31 0 1.65-0.48 3.45-1.06 4-0.59 0.55-1.3 3.02-1.57 5.5-0.39 3.48-0.1 4.9 1.3 6.25 1.11 1.08 1.51 2.32 1.05 3.25-0.41 0.82-0.3 1.73 0.25 2 0.6 0.3 0.69 1.79 0.23 3.75-0.55 2.32-0.19 4.88 1.25 8.92 1.4 3.91 2.48 5.56 3.52 5.32 0.82-0.18 1.5-0.41 1.5-0.49 0-0.08 0.9-0.32 2-0.53 1.1-0.21 5.18-3.89 9.06-8.18 3.89-4.28 8.73-8.8 10.75-10.04 2.64-1.61 4.19-1.99 5.44-1.34 1.27 0.67 3.67-0.01 8.75-2.45 3.85-1.85 9.7-4.06 13-4.91 3.3-0.85 8.7-1.81 12-2.12 3.3-0.32 9.82-0.06 14.5 0.57 4.67 0.63 11.76 2.24 15.75 3.57 5.78 1.94 7.86 2.23 10.25 1.43 2.59-0.86 3.92-0.51 9.75 2.61 3.71 1.98 9.67 5.76 13.25 8.4 3.57 2.63 10.34 8.77 15.04 13.64 4.69 4.87 10.04 11.1 11.89 13.85 1.85 2.75 4.98 6.67 6.96 8.71 1.99 2.04 3.95 3.51 4.36 3.25 0.41-0.25 0.75-1.36 0.75-2.46 0-1.1 1.17-4.36 2.61-7.25 1.43-2.89 4.02-6.75 5.75-8.58 1.72-1.83 4.71-3.98 6.64-4.77 1.92-0.8 5.46-1.55 7.85-1.68 2.39-0.12 4.53-0.56 4.75-0.97 0.22-0.41-3.31-4.43-7.85-8.93-4.54-4.51-12.3-11.19-17.25-14.87-4.95-3.67-12.94-9.21-17.75-12.31-4.81-3.1-14.49-8.5-21.5-12.01-7.01-3.5-18.15-8.41-24.75-10.91-6.6-2.5-17.63-6.11-24.5-8.03-6.88-1.91-16.55-4.4-21.5-5.53-4.95-1.13-12.83-2.56-17.5-3.18-4.68-0.61-16.53-1.42-26.34-1.8-11.51-0.44-18.14-0.33-18.69 0.32z"/>
	<path id="MID-R-AFS" class="s0" d="m252.01 327.78c-3.57 0.22-10.99 0.84-16.5 1.37-5.5 0.53-16.53 2.26-24.51 3.85-7.97 1.59-20.57 4.92-28 7.39-7.43 2.47-18.45 6.7-24.5 9.39-6.2 2.76-11.04 5.51-11.1 6.31-0.05 0.77-0.16 1.75-0.25 2.16-0.08 0.41-0.28 1.31-0.45 2-0.16 0.69 0.74 2.49 2 4 1.27 1.51 2.31 3.54 2.32 4.5 0.01 0.96 1.03 2.74 2.25 3.94l2.23 2.2c7.75-6.07 10.79-7.85 11.75-7.86 0.96-0.02 1.92-0.37 2.13-0.78 0.2-0.41 1.67-1.05 3.25-1.41 1.58-0.37 3.43-0.25 4.12 0.25 0.77 0.56 1.73 0.52 2.5-0.11 0.69-0.56 6.65-1.29 13.25-1.62 7.42-0.37 14.29-0.16 18 0.55 3.3 0.63 8.48 2.28 11.5 3.66 3.03 1.39 7.3 3.72 9.5 5.19 2.2 1.46 7.49 5.93 11.75 9.95 4.26 4.01 8.2 7.07 8.75 6.79 0.55-0.27 2.09 1.41 3.43 3.75 1.33 2.34 3.37 5.15 4.53 6.25 1.16 1.1 2.09 2.79 2.07 3.75-0.02 0.96 0.53 1.75 1.22 1.75 0.69 0 1.86-1.46 2.6-3.25 0.74-1.79 1.11-3.7 0.81-4.25-0.29-0.55 0-1.51 0.65-2.14 0.92-0.89 0.9-1.29-0.06-1.75-0.69-0.34-0.98-1.4-0.65-2.36 0.33-0.96-0.08-3.1-0.91-4.75-1.02-2.01-1.47-5.49-1.36-10.59 0.09-4.18 0.69-8.23 1.33-9 0.68-0.83 1.09-4.43 1-8.76-0.09-4.04 0.18-7.52 0.59-7.75 0.41-0.22 0.44-0.96 0.05-1.65-0.38-0.69-0.61-2.82-0.49-4.75 0.11-1.95-0.47-4.27-1.3-5.25-1.13-1.31-1.27-2.44-0.57-4.5 0.77-2.26 0.54-3.15-1.25-4.98-1.21-1.22-2.87-2.15-3.69-2.06-0.82 0.1-4.42 0.35-7.99 0.57z"/>
	<path id="MID-L-AFS" class="s0" d="m263.83 327.56c-1.03 1.18-1.06 1.8-0.14 2.73 0.83 0.85 0.9 1.96 0.23 3.71-0.7 1.85-0.56 3.09 0.56 4.75 0.84 1.24 1.43 3.71 1.32 5.5-0.11 1.79 0.12 3.81 0.5 4.5 0.39 0.69 0.25 1.48-0.3 1.75-0.55 0.27-0.68 1.06-0.28 1.75 0.4 0.69 0.82 1.93 0.94 2.75 0.12 0.82-0.41 2.18-1.18 3-0.98 1.04-1.17 2.41-0.63 4.5 0.49 1.89 0.31 3.92-0.47 5.5-0.75 1.49-1.18 5.76-1.07 10.59 0.11 4.63 0.72 8.79 1.44 9.75 0.86 1.14 0.94 2.12 0.25 3.16-0.55 0.82-0.66 1.7-0.25 1.94 0.41 0.24 0.43 2.37 0.04 4.75-0.38 2.37-0.72 4.65-0.75 5.06-0.02 0.41 0.52 0.75 1.21 0.75 0.69 0.01 1.7-0.85 2.25-1.9 0.55-1.05 2.28-4.32 3.84-7.26 1.56-2.94 4.49-7.55 6.5-10.26 2.01-2.71 5.91-6.8 8.66-9.1 2.75-2.3 7.02-5.37 9.5-6.82q4.5-2.64 5.5-1.64 1 1 5.5-0.59c2.48-0.87 5.4-1.83 6.5-2.14 1.1-0.3 7.63-0.77 14.5-1.03 7.24-0.27 14.6-0.01 17.5 0.62 2.75 0.6 7.02 2.16 9.5 3.46 2.48 1.31 6.3 3.38 8.5 4.61 2.2 1.23 4.45 2.62 5 3.08 0.56 0.46 1.74 0.31 2.67-0.35 1.31-0.93 2.02-0.86 3.38 0.32 1.57 1.37 2.22 0.94 7.54-5 3.19-3.57 6.06-7.29 6.36-8.25 0.41-1.3-0.54-2.32-3.7-3.97-2.34-1.23-7.85-3.96-12.25-6.07-4.4-2.12-11.71-5.39-16.25-7.28-4.54-1.89-13.31-4.97-19.5-6.84-6.19-1.88-16.09-4.35-22-5.5-5.91-1.15-14.69-2.51-19.5-3.03-4.81-0.52-12.8-1.05-17.75-1.17-4.95-0.12-9.75-0.59-10.67-1.03-1.09-0.53-2.13-0.29-3 0.7z"/>
	<path id="AP-R-AFS" class="s0" d="m253.5 597.77c-3.3 0.15-11.29 0.94-17.75 1.75-6.46 0.81-16.59 2.59-22.5 3.95-6.19 1.42-11.81 3.33-13.25 4.5-2.47 2.01-2.48 2.04-0.5 3.55 1.1 0.83 1.66 1.51 1.25 1.5-0.41-0.01 0.6 1.56 2.25 3.48 1.65 1.92 2.99 4.29 2.98 5.25-0.01 0.96 1.45 3.21 3.25 4.98 2.95 2.93 3.85 3.24 9.27 3.24 3.3 0 8.25 0.68 11 1.51 2.75 0.82 7.43 3.19 10.39 5.26 4.02 2.8 7.01 6.25 11.75 13.51 3.5 5.36 6.81 9.98 7.36 10.25 0.55 0.27 1.23-0.17 1.5-1 0.27-0.83-0.06-2.19-0.75-3.04-1.04-1.27-0.77-1.99 1.56-4.25 2.35-2.27 2.75-3.36 2.43-6.71-0.2-2.2-0.68-4.56-1.06-5.25-0.37-0.69-0.23-1.48 0.32-1.75 0.57-0.29 0.99-4.89 0.97-10.75-0.01-5.64 0.02-10.92 0.08-11.75 0.05-0.83 0.01-4.42-0.09-8-0.1-3.58-0.34-7.17-0.53-8-0.19-0.83-1.15-1.73-2.14-2-0.98-0.27-4.49-0.38-7.79-0.23z"/>
	<path id="AP-L-AFS" class="s0" d="m264.25 597.82c-1.71 1.38-1.99 2.47-1.59 6.18 0.27 2.47 0.54 6.97 0.61 10 0.07 3.02-0.16 5.95-0.51 6.5-0.35 0.55-0.76 2.35-0.9 4-0.15 1.65 0.05 3.56 0.44 4.25 0.38 0.69 0.32 3.16-0.14 5.5-0.7 3.5-0.43 5.18 1.5 9.5 1.32 2.96 2.99 5.25 3.84 5.25 0.82 0 1.5-0.45 1.5-1 0-0.55 2.36-3.49 5.25-6.53 3.4-3.58 5.6-5.19 6.25-4.57 0.64 0.61 2.61-0.07 5.5-1.89 2.48-1.56 6.52-3.37 9-4.02 2.48-0.65 8.26-1.03 12.85-0.84l8.35 0.35c4.68-8.53 7.67-12.69 9.67-14.77 2-2.07 4.19-3.75 4.88-3.75 0.69 0.01 1.26-0.54 1.27-1.23 0.01-0.69-3.26-2.25-7.25-3.47-4-1.22-9.75-2.91-12.77-3.75-3.02-0.84-9.32-2.21-14-3.04-4.68-0.83-13.23-1.79-19-2.14-5.77-0.34-10.99-0.98-11.59-1.42-0.6-0.44-2.01-0.04-3.16 0.89z"/>
	<path id="BASE-R-TZa" class="s1" d="m179.01 49.75c0 0.41-2.81 1.51-6.25 2.45-3.44 0.93-10.08 3.16-14.76 4.95-4.68 1.79-11.65 5.36-15.5 7.94-3.85 2.57-10.49 7.88-14.75 11.8-4.26 3.91-8.54 7.09-9.5 7.08-0.96-0.02-2.87 0.81-4.25 1.84-1.37 1.03-4.97 5.21-7.99 9.28-3.02 4.08-6.95 10.78-8.74 14.91-1.78 4.12-3.25 8.96-3.26 10.75 0 1.79-0.86 4.94-1.9 7-1.04 2.06-2.72 6-3.73 8.75-1.21 3.29-1.77 7.22-1.63 11.5 0.11 3.57 0.44 7.51 0.73 8.75 0.29 1.24 1.2 2.47 2.02 2.75 0.83 0.28 2.96 0.06 4.75-0.47 2.63-0.78 3.87-0.59 6.5 1 3.24 1.96 3.27 1.96 8.5-0.03 2.89-1.1 6.04-2 7-2 0.96 0 2.88 0.9 4.25 2 2.4 1.92 2.72 1.93 7.75 0.4 4.34-1.33 6.33-1.41 11.5-0.5 3.84 0.68 7.12 0.76 8.5 0.2 1.24-0.49 4.05-1.44 6.25-2.12 2.99-0.91 4.57-0.94 6.25-0.1 1.24 0.62 3.49 1.14 5 1.15 1.51 0.02 4.1-0.94 5.75-2.15 2.06-1.5 3.79-1.99 5.5-1.57 1.38 0.33 5.2 1.15 8.5 1.82 5.56 1.12 6.29 1.05 10-0.98 3.75-2.06 4.94-2.17 19-1.71 8.25 0.26 15.68 0.51 16.5 0.55 0.82 0.03 4.88-0.37 9-0.9 5.69-0.73 8.46-0.64 11.5 0.36 2.2 0.73 5.46 1.6 7.25 1.94 2.22 0.42 3.72 0.14 4.75-0.89 0.82-0.82 1.5-3.07 1.5-5 0-1.93 0.45-3.5 1-3.5 0.55 0 1-1.35 1-3 0-1.65-0.45-3-1-3-0.55 0-0.98-1.24-0.97-2.75 0.02-1.51-0.85-3.88-1.95-5.25-1.09-1.38-2.7-5.65-3.58-9.5-0.88-3.85-1.92-14.5-2.3-23.68-0.62-14.72-0.95-17-2.8-19.5-1.43-1.93-3.17-2.93-5.5-3.16-2.66-0.26-5.19-2.05-11.65-8.25-4.68-4.49-10.74-9.16-14-10.81-3.16-1.59-9.35-3.93-13.75-5.2-4.4-1.27-8.11-2.67-8.25-3.1-0.14-0.44-5.2-0.8-11.25-0.8-6.05 0-11 0.34-10.99 0.75z"/>
	<path id="BASE-L-TZa" class="s1" d="m326 50c0 0.55-1.69 1.29-3.75 1.65-2.06 0.36-6 1.42-8.75 2.35-2.75 0.94-7.7 3.01-11 4.6-3.3 1.59-8.31 4.69-11.13 6.9-2.82 2.2-7.72 5.58-10.88 7.5-3.24 1.97-6.41 4.81-7.26 6.5-0.84 1.65-2.36 5.47-3.39 8.5-1.16 3.4-1.86 8.26-1.86 12.75 0.01 3.99-0.82 11.64-1.85 17-1.04 5.4-1.71 12.42-1.51 15.75 0.2 3.3 0.78 8.25 1.29 11 0.51 2.75 1.19 5.79 1.51 6.75 0.32 0.96 1.82 1.99 3.33 2.29 1.51 0.3 4.1 0.92 5.75 1.39 1.67 0.47 3.66 0.46 4.5-0.03 0.82-0.48 2.51-0.88 3.75-0.88 1.24-0.01 4.39 0.91 7 2.04 4.6 2 4.92 2.02 10.25 0.38 3.59-1.11 6.71-1.46 9-1 1.93 0.39 3.95 0.68 4.5 0.65 0.55-0.03 2.35-0.34 4-0.68 2.07-0.42 4.24 0.04 7 1.49 2.2 1.16 5.46 2.11 7.25 2.1 1.79 0 4.94-0.71 7-1.58 2.93-1.23 5.61-1.43 12.25-0.91 5.36 0.42 9.98 1.4 12.5 2.67 3.79 1.9 4.24 1.92 8.75 0.41 2.61-0.87 5.99-1.6 7.5-1.62 1.51-0.01 3.12 0.32 3.58 0.75 0.46 0.43 4.06 0.84 8 0.9 3.94 0.07 11.67 0.41 17.17 0.75 8.28 0.51 10.3 0.97 11.75 2.63 0.96 1.1 2.2 2 2.75 2 0.55 0 1.23-0.68 1.5-1.5q0.5-1.5 4.5-1.5c2.2 0 5.13-0.45 6.5-1 1.79-0.71 2.81-2.21 3.59-5.25 0.6-2.34 0.87-5.6 0.58-7.25-0.28-1.65-0.94-5.93-1.47-9.5-0.54-3.57-1.76-9.2-2.71-12.5-0.96-3.3-3.79-10.28-6.29-15.5-2.5-5.22-6.59-12.2-9.08-15.5-2.49-3.3-7.03-8.85-10.08-12.33-3.05-3.49-7.9-8.32-10.79-10.75-4.37-3.68-5.71-4.31-8-3.75-2.05 0.5-3.64 0.04-6.25-1.81-1.93-1.36-5.98-3.85-9-5.54-3.02-1.68-9.77-4.42-15-6.08-5.23-1.66-10.96-3.29-12.75-3.63-1.79-0.34-3.25-1.06-3.25-1.61 0-0.6-4.17-1-10.5-1-6.33 0-10.5 0.4-10.5 1z"/>
</svg>