<svg version="1.2" xmlns="http://www.w3.org/2000/svg" viewBox="0 0 223 459" width="223" height="459">
	<style>
		.s0 { fill: #8a8a89 } 
		.s1 { fill: #4a4676 } 
	</style>
	<path id="vL5" class="s0" d="m57.5 308.79c-4.08 2.15-6.11 2.59-11 2.36-3.3-0.15-10.26-0.36-15.46-0.46-9.32-0.19-9.48-0.15-11 2.52-1.27 2.24-1.34 3.36-0.36 6.5 0.65 2.08 2.16 6.94 3.35 10.79 1.66 5.33 2.21 9.81 2.32 18.79 0.12 9.27 0.47 11.99 1.65 12.73 0.83 0.52 3.41 0.96 5.75 0.96 3.46 0.02 5.6-0.9 11.5-4.9 3.99-2.71 9.28-5.4 11.75-5.98 2.48-0.58 6.3-1.06 8.5-1.08 2.2-0.01 5.46-0.93 7.25-2.02 2.86-1.76 3.25-2.52 3.22-6.25-0.02-2.55-0.89-5.65-2.18-7.75-1.57-2.55-2.16-5.14-2.17-9.5-0.01-3.3 0.36-8.25 0.81-11 0.68-4.05 0.53-5.33-0.8-6.75-0.95-1.02-2.99-1.72-4.88-1.67-1.79 0.04-5.5 1.26-8.25 2.71z"/>
	<path id="dL5/S1" class="s1" d="m65 348.5c-4.13 1.9-8.4 3.48-9.5 3.5-1.1 0.03-3.8 0.86-6 1.85-2.2 1-4.67 2.48-5.5 3.29-0.83 0.81-4.15 2.58-7.39 3.92-3.25 1.34-6.51 3.34-7.27 4.44-1.05 1.53-1.14 3.05-0.4 6.5 0.54 2.48 1.78 5.09 2.77 5.81 0.98 0.72 2.91 1.1 4.29 0.84 1.37-0.26 6.1-1.85 10.5-3.54 4.4-1.69 10.86-4.77 14.36-6.84 3.49-2.07 9.01-6.13 12.25-9.02 4.44-3.96 5.9-5.93 5.92-8 0.02-1.51-0.77-3.53-1.75-4.47-0.98-0.95-2.45-1.73-3.28-1.74-0.83 0-4.88 1.56-9 3.46z"/>
</svg>