<svg version="1.2" xmlns="http://www.w3.org/2000/svg" viewBox="0 0 530 737" width="530" height="737">
	<style>
		.s0 { fill: #282727 } 
		.s1 { fill: #cece22 } 
		.s2 { fill: #c35c5c } 
		.s3 { fill: #b3b3b3 } 
		.s4 { fill: #001ecd } 
	</style>
	<path id="ankle_comp_lat" class="s0" d="m183.5 300.56c-2.75 0.73-6.35 2.34-8 3.57-1.65 1.24-3.66 3.17-4.46 4.31-0.8 1.13-5.45 5.88-10.34 10.56-5.09 4.87-10.19 10.85-11.95 14-2.13 3.8-3.62 8.59-4.82 15.5-0.97 5.5-2.06 15.18-2.42 21.5-0.37 6.32-1.43 14.43-2.34 18-1.36 5.3-1.64 11.03-1.52 31 0.09 13.87 0.65 26.89 1.3 30 0.63 3.02 2.36 7.16 3.85 9.19 1.48 2.03 3.93 5.18 5.42 7 1.87 2.27 3.19 5.66 4.22 10.81 1.08 5.46 2.18 8.18 4.05 10 2.23 2.18 3.6 2.54 10.78 2.83 6.57 0.26 10.15-0.21 17.73-2.33 5.22-1.46 12.2-3.58 15.5-4.7 3.3-1.13 8.36-2.9 11.25-3.93 2.89-1.03 9.19-2.32 14-2.86 4.81-0.55 12.35-2.19 16.75-3.64 4.4-1.46 9.13-3.44 10.5-4.4 1.37-0.96 4.3-2.49 6.5-3.4 2.2-0.91 5.6-3.32 7.55-5.36 1.95-2.04 5.21-4.95 7.25-6.46 2.03-1.51 4.6-4.21 5.7-6 1.59-2.6 1.99-5.01 2-12 0-7.81-0.32-9.37-3.03-14.5-1.67-3.16-4.7-7.85-6.75-10.42-2.05-2.57-8.31-9.55-13.92-15.5-5.6-5.96-12.07-13.08-14.38-15.83-2.3-2.75-5.09-6.8-6.19-9-1.11-2.2-2.8-6.7-3.76-10-0.97-3.3-4.1-11.18-6.96-17.5-2.87-6.32-7.14-15.55-9.5-20.5-2.77-5.81-6.19-11.03-9.65-14.74-4.68-5.01-5.87-5.75-9.36-5.89-2.2-0.08-5.35-0.26-7-0.39-1.65-0.14-5.25 0.35-8 1.08z"/>
	<path id="ankle_comp_med" class="s0" d="m333.5 242.13c-2.75 0.48-7.02 2.06-9.5 3.52-2.48 1.46-6.27 4.05-8.43 5.75-2.37 1.87-4.95 5.29-6.49 8.6-2.23 4.81-2.59 7.12-2.91 18.5-0.35 12.4-0.22 13.47 2.85 23 1.76 5.5 3.79 11.57 4.5 13.5 0.72 1.93 2.87 8 4.79 13.5 1.92 5.5 4.96 17.43 6.77 26.5 1.88 9.4 3.67 22.31 4.17 30 0.49 7.43 0.65 14.4 0.37 15.5-0.29 1.1-2 3.64-3.82 5.64-1.81 2-6.45 5.55-10.3 7.88-3.85 2.34-9.22 5.43-11.93 6.87-2.72 1.43-6.2 3.85-7.75 5.36-1.55 1.51-2.84 3.54-2.86 4.5-0.02 0.96-1.37 3.21-3 5-2.24 2.46-2.96 4.22-2.96 7.25 0 3.14 0.68 4.7 3.17 7.25l3.16 3.25c28.03-1.11 38.42-1.87 41.17-2.4 2.75-0.53 7.7-1.44 11-2.02 3.3-0.59 10.61-1.07 16.25-1.07 8.54-0.01 11.12-0.4 15.5-2.33 3.18-1.41 6.75-4.07 9.04-6.75 2.08-2.44 4.64-6.68 5.7-9.43 1.05-2.75 2.95-7.48 4.22-10.5 1.26-3.02 3.1-6.62 4.07-8 0.98-1.37 2.62-5.2 3.65-8.5 1.03-3.3 3.6-9.82 5.7-14.5 3.56-7.89 3.86-9.25 4.1-19 0.14-5.77 0.93-13.2 1.75-16.5 0.82-3.3 1.49-10.27 1.48-15.5 0-7.48-0.44-10.46-2.07-14-1.14-2.48-4.22-11.02-6.84-19-2.62-7.98-6.91-18.77-9.54-24-2.63-5.23-7.82-13.77-11.55-19-3.72-5.23-8.5-11.14-10.61-13.15-2.12-2-5.2-3.91-6.85-4.24-1.65-0.32-5.02-0.84-7.5-1.14-2.48-0.31-8.77-0.7-14-0.88-5.23-0.17-11.75 0.07-14.5 0.54z"/>
	<path id="ankle_comp_ant" class="s0" d="m289.91 176.44c-0.22 0.24-5.59 0.67-11.91 0.95-6.33 0.28-13.98 1.2-17 2.05-3.03 0.85-8.65 2.44-12.5 3.55-3.85 1.1-11.28 3.09-16.5 4.42-5.23 1.32-12.2 3.43-15.5 4.68-3.42 1.3-7.86 4.02-10.33 6.34-2.38 2.24-5.58 6.32-7.11 9.07-1.53 2.75-5.09 7.7-7.91 11-2.82 3.3-5.15 6.45-5.18 7-0.02 0.55-1.71 2.92-3.76 5.26-2.04 2.34-5.56 6.39-7.83 9-2.31 2.67-7.19 11.08-11.15 19.24-3.87 7.98-7.6 16.3-8.27 18.5-0.72 2.34-1.01 6.5-0.7 10 0.31 3.52-0.04 8.48-0.85 12-0.76 3.3-1.39 9.04-1.39 12.75-0.02 6.18 0.23 7 2.98 9.75 2.28 2.28 3.9 3 6.75 2.98 2.32-0.01 5.85-1.2 9.25-3.13 3.02-1.71 7.62-4.96 10.2-7.23 2.59-2.27 6.39-5.47 8.45-7.12 2.25-1.8 5.56-3.29 8.29-3.73 2.51-0.4 8.05-1.18 12.31-1.75 4.26-0.56 8.76-1.54 10-2.17 1.24-0.64 3.37-1.51 4.75-1.94 1.37-0.42 5.65-1.95 9.5-3.38 3.85-1.43 11.27-3.97 16.5-5.63 5.22-1.67 13.32-4.23 18-5.69 4.67-1.47 10.97-4.18 14-6.04 3.02-1.85 11.35-6.31 18.5-9.91 8.38-4.23 18.15-8.13 27.5-10.99 7.97-2.44 17.42-4.7 21-5.02 6.12-0.55 6.58-0.44 7.9 1.83 0.77 1.33 2 4.56 2.75 7.17 0.85 2.99 2.37 5.5 4.1 6.78 1.67 1.24 4.25 2.03 6.58 2 2.91-0.02 4.53-0.75 6.75-3.03 2.39-2.45 2.92-3.87 2.94-7.75 0.02-3.7-1.08-7.01-5-15-2.76-5.64-5.47-10.47-6.02-10.75-0.55-0.28-1.9-2.53-3-5-1.1-2.47-3.73-6.86-5.84-9.75-2.12-2.89-7.2-8.4-11.29-12.25-4.09-3.85-9.67-9.89-12.41-13.43-2.73-3.54-6.31-7.47-7.96-8.75-1.65-1.28-6.38-3.24-10.5-4.36-4.33-1.18-11.97-2.24-18.09-2.51-5.82-0.25-10.77-0.26-11-0.01z"/>
	<path id="ankle_comp_post" class="s0" d="m365 438.45c-4.13 1.36-9.52 2.71-12 3.02-2.48 0.31-11.48 0.79-20 1.07-8.52 0.27-17.98 0.69-21 0.94-3.02 0.24-12.7 0.7-21.5 1.03-8.8 0.32-19.04 1.24-22.75 2.04-3.71 0.8-7.99 2.06-9.5 2.81-1.51 0.76-5.22 2.16-8.25 3.13-3.03 0.97-10.9 4.33-17.5 7.46-6.6 3.13-13.69 6.45-15.75 7.37-2.06 0.92-4.54 1.68-5.5 1.68-0.96 0-5.35 1.27-9.75 2.83-4.4 1.55-8.9 3.3-10 3.87-1.1 0.57-3.24 2.45-4.75 4.17-1.59 1.81-3.38 2.92-4.25 2.63-0.82-0.27-2.23-1.96-3.12-3.75-0.89-1.79-2.57-4.27-3.75-5.53-1.65-1.75-3.21-2.27-6.88-2.25-4.04 0.03-5.12 0.48-7.25 3.03-1.75 2.1-2.5 4.2-2.5 7 0 2.2 0.61 5.46 1.36 7.25 0.75 1.79 4.02 5.75 7.25 8.8 3.24 3.06 8.36 7.18 11.39 9.16 3.03 1.98 8.31 6.68 11.74 10.44 3.43 3.77 9.93 10.9 14.44 15.85 4.51 4.95 11.41 11.92 15.34 15.5 3.92 3.58 11.82 9.24 17.55 12.58 5.74 3.35 11.78 6.62 13.43 7.28 1.65 0.65 4.57 2.78 6.5 4.72 2.24 2.26 6.28 4.59 11.25 6.48 5.25 1.99 9.61 2.95 13.5 2.97 5.01 0.02 6.33-0.42 10.25-3.37 2.48-1.87 5.85-3.84 7.5-4.39 1.65-0.54 4.8-2.19 7-3.66 2.2-1.47 4.53-2.66 5.17-2.64 0.65 0.02 2.62-1.43 4.39-3.22 1.76-1.79 4.23-5.27 5.48-7.75 1.25-2.48 3.71-5.85 5.46-7.5 1.75-1.65 3.99-4.58 4.98-6.5 0.99-1.92 2.96-7.33 4.37-12 1.45-4.83 3.49-9.36 4.72-10.5 1.19-1.1 4.81-5.94 8.05-10.75 3.23-4.81 5.88-9.2 5.88-9.75 0-0.55 1.2-4.04 2.66-7.75 1.47-3.71 4.05-8.49 5.75-10.62 1.7-2.13 5.36-6.4 8.13-9.5 3.22-3.59 6.28-8.52 8.45-13.63 1.99-4.67 3.42-9.76 3.46-12.23 0.04-3.21-0.55-4.83-2.45-6.75-1.38-1.4-4.07-2.76-6-3.03-2.21-0.31-6.27 0.41-11 1.96z"/>
	<path id="ankle_joint_fluid" class="s1" d="m294.5 256c-1.1 0.47-4.02 0.89-6.48 0.93-2.47 0.04-5.62 0.76-7 1.6-1.39 0.84-3.2 1.53-4.02 1.52-0.82-0.01-3.98 0.82-7 1.84-3.02 1.03-7.07 2.36-9 2.97-1.93 0.62-4.4 1.11-5.5 1.11-1.1-0.01-4.25 0.86-7 1.94-2.75 1.07-6.57 2.2-8.5 2.5-1.93 0.31-5.07 1.7-7 3.09-1.93 1.39-4.26 2.53-5.18 2.52-0.92-0.01-2.27 0.54-3 1.23-0.73 0.69-4.7 4.22-8.82 7.85-4.13 3.63-8.36 8.36-9.4 10.5-1.05 2.15-2.95 5.25-4.23 6.9-1.27 1.65-2.33 3.34-2.34 3.75-0.02 0.41-1.6 4.13-3.53 8.25-2.67 5.71-3.5 8.81-3.5 13 0 3.87-0.74 6.98-2.5 10.5-1.83 3.67-2.5 6.6-2.5 11 0 3.3 0.51 7.01 1.14 8.25 0.63 1.24 1.51 4.5 1.96 7.25 0.44 2.75 1.28 7.48 1.86 10.5 0.58 3.02 1.95 6.96 3.05 8.75 1.09 1.79 1.98 3.81 1.97 4.5-0.02 0.69 2.04 5.3 4.57 10.25 2.53 4.95 5.17 9.68 5.85 10.5 0.69 0.82 2.29 3.3 3.56 5.5 1.27 2.2 4.84 6.83 7.92 10.28 3.7 4.13 7.67 7.32 11.62 9.31 3.3 1.67 6.45 3.38 7 3.79 0.55 0.42 2.8 1.26 5 1.88 2.2 0.62 6.7 1.64 10 2.28 3.85 0.75 11.01 0.96 20 0.58 7.7-0.33 22.77-0.85 33.5-1.17 15.25-0.46 20.59-0.98 24.5-2.4 2.75-1 6.97-2.43 9.38-3.18 3.14-0.98 6.92-3.78 13.32-9.87 6.96-6.62 9.17-9.39 9.97-12.5 0.56-2.2 1.74-5.35 2.61-7 0.96-1.82 2-7.97 2.65-15.66 0.83-9.79 0.79-13.42-0.17-16-0.68-1.84-1.24-5.14-1.25-7.34-0.01-2.2-0.71-5.35-1.55-7-0.84-1.65-1.51-3.79-1.49-4.75 0.02-0.96-0.82-3.66-1.85-6-1.03-2.34-2.41-6.95-3.05-10.25-0.65-3.3-1.81-8.25-2.59-11-0.77-2.75-1.63-6.57-1.9-8.5-0.27-1.93-0.88-5.75-1.35-8.5-0.47-2.75-1.57-6.57-2.44-8.5-0.88-1.93-1.89-5.07-2.25-7-0.36-1.93-1.48-4.63-2.48-6-0.99-1.38-2.09-3.85-2.43-5.5-0.34-1.65-2.11-4.8-3.93-7-1.82-2.2-4.42-5.78-5.76-7.95-1.34-2.18-4.24-5.22-6.44-6.77-2.2-1.54-5.35-3.09-7-3.43-1.65-0.34-4.57-1.46-6.5-2.49-2.58-1.37-5.48-1.85-11-1.79-4.13 0.04-8.4 0.46-9.5 0.93z"/>
	<path id="ankle_achilles" class="s2" d="m295 537.96c-2.48 0.4-4.95 1-5.5 1.33-0.55 0.34-3.48 1.34-6.5 2.21-3.02 0.88-9.32 2.49-14 3.58-4.68 1.09-10.98 2.44-14 3-3.19 0.6-6.46 1.95-7.78 3.23-1.5 1.45-2.28 3.37-2.29 5.69-0.01 3.17 0.82 4.22 8.78 11.08 4.83 4.17 10.36 8.12 12.29 8.78 2.32 0.79 6.04 0.96 11 0.49 4.13-0.38 8.4-1.19 9.5-1.8 1.1-0.61 3.8-2.3 6-3.77 2.2-1.47 5.8-4.27 8-6.23 2.2-1.96 5.46-4.24 7.25-5.06 1.79-0.82 3.9-2.5 4.68-3.74 0.79-1.24 1.81-5.04 2.25-8.45 0.77-5.81 0.66-6.36-1.68-8.78-2.14-2.2-3.3-2.55-8-2.43-3.02 0.08-7.52 0.47-10 0.87z"/>
	<path id="ankle_bones" class="s3" d="m342.5 265.03c-1.65 0.54-4.02 2-5.28 3.23-1.25 1.23-2.18 2.73-2.07 3.34 0.1 0.6-0.71 1.9-1.81 2.9-1.1 1-2.07 3.09-2.17 4.65-0.09 1.57 1.57 6.56 3.7 11.1 2.12 4.54 4.19 9.6 4.58 11.25 0.4 1.65 1.62 5.03 2.72 7.5 1.1 2.48 3.81 8.1 6.02 12.5 2.21 4.4 5.74 10.93 7.83 14.5 2.1 3.58 4.75 9.88 5.9 14 1.15 4.13 2.08 9.53 2.07 12-0.01 2.48-0.67 7.2-1.47 10.5-0.8 3.3-1.46 7.46-1.48 9.25-0.03 2.41 0.67 3.78 2.71 5.28 1.51 1.12 3.76 2.02 5 2 1.24-0.01 3.04-0.42 4-0.89 0.96-0.47 4.01-3.96 6.78-7.75 2.76-3.79 8.2-12.06 12.08-18.39 3.88-6.32 7.76-13.07 8.61-15 0.86-1.92 1.86-4.62 2.23-6 0.37-1.37 1.06-3.4 1.52-4.5 0.47-1.1 1.34-5.26 1.94-9.25 0.6-3.99 1.09-9.95 1.09-13.25 0-3.3-0.75-7.91-1.67-10.25-0.91-2.34-3.13-6.5-4.92-9.25-1.79-2.75-7.46-9.2-12.59-14.34-5.12-5.14-11.12-10.16-13.32-11.15-2.2-1-5.8-2.3-8-2.89-2.2-0.58-7.82-1.29-12.5-1.57-4.68-0.28-9.85-0.06-11.5 0.48zm-37 8.87c-2.75 1.01-11.07 4.94-18.5 8.74-7.43 3.8-16.2 7.99-19.5 9.32-3.3 1.32-7.57 2.8-9.5 3.28-1.93 0.49-11.82 1.26-22 1.71-14.68 0.65-20.05 1.29-26 3.1-4.86 1.48-8.65 3.36-10.77 5.36-2.4 2.27-3.26 3.95-3.25 6.34 0.01 1.79 0.93 4.71 2.03 6.5 1.11 1.79 2.89 6.18 3.95 9.75 1.07 3.58 2.22 8.98 2.55 12 0.34 3.03 1.08 7.75 1.65 10.5 0.57 2.75 2.15 8.6 3.5 13 1.36 4.4 3.84 10.7 5.52 14 1.67 3.3 4.96 8.93 7.31 12.5 2.35 3.58 6.04 8.3 8.21 10.5 2.17 2.2 5.48 5.38 7.37 7.06 1.89 1.68 5.46 4.43 7.93 6.1 2.47 1.68 6.07 3.77 8 4.66 1.93 0.89 5.64 2.08 8.25 2.65 2.61 0.56 8.69 1.3 13.5 1.64 5.1 0.35 9.58 0.19 10.75-0.38 1.1-0.55 5.82-2.8 10.5-5.01 4.68-2.21 12.32-5.18 17-6.6 4.68-1.42 12.32-3.27 17-4.1 4.68-0.83 9.51-2.19 10.75-3.02 1.24-0.82 3.8-3.64 5.7-6.25 2.07-2.86 4.08-7.34 5.04-11.25 1.03-4.2 1.64-11.63 1.75-21 0.13-12.83-0.15-15.59-2.46-24-1.43-5.22-4-12.54-5.69-16.25-1.7-3.71-3.09-7.2-3.09-7.75 0-0.55-0.36-1.11-0.8-1.25-0.44-0.14-2.52-4.3-4.63-9.25-2.11-4.95-5.24-13.31-6.95-18.59-1.72-5.27-3.8-10.39-4.62-11.37-0.82-0.98-2.74-2.4-4.25-3.16-1.51-0.76-4.66-1.36-7-1.34-2.34 0.02-6.5 0.86-9.25 1.86zm-126.5 76.77c-1.93 1.46-6.13 5.17-9.34 8.24-3.21 3.07-7.76 8.29-10.11 11.59-2.36 3.3-4.99 8.25-5.85 11-0.86 2.75-1.83 6.35-2.16 8-0.33 1.65-0.97 8.63-1.42 15.5-0.45 6.88-0.44 15.54 0.03 19.25 0.47 3.71 1.92 8.89 3.22 11.5 1.31 2.61 5.13 7.34 8.5 10.5q6.13 5.75 15.38 10.25c8.45 4.12 10.12 4.57 19.25 5.19 9.5 0.64 10.23 0.54 14.5-1.87 2.47-1.4 6.07-4.35 8-6.57 1.93-2.21 4.13-6.21 4.9-8.89 0.89-3.11 1.17-6.84 0.78-10.36-0.34-3.02-1.62-8.42-2.83-12-1.22-3.57-4.35-10.77-6.95-16-2.6-5.22-6.12-14.45-7.82-20.5-1.7-6.05-4.42-14.82-6.05-19.5-1.63-4.67-3.88-9.29-4.99-10.25-1.12-0.96-2.03-2.09-2.01-2.5 0.01-0.41-1-1.75-2.25-2.98-1.48-1.44-3.52-2.23-5.78-2.24-2.25 0-4.75 0.94-7 2.64z"/>
	<path id="ankle_ligaments" class="s4" d="m324.5 283.45c-1.32 1.35-2.43 3.6-2.45 5-0.03 1.4 4.27 10.99 9.55 21.3 5.28 10.31 9.92 19.2 10.33 19.75 0.4 0.55 1.76 3.48 3.01 6.5 1.25 3.02 2.93 9.55 3.72 14.5 0.8 4.95 1.53 14.47 1.64 21.15 0.17 10.6 0.45 12.41 2.2 14.28 1.31 1.4 3.21 2.13 5.5 2.13 2.32-0.01 4.25-0.78 5.73-2.28 2.06-2.1 2.23-3.22 2.25-14.53 0.01-6.74-0.69-16.41-1.55-21.5-0.87-5.09-2.29-11.73-3.16-14.75-0.88-3.02-6.73-15.62-13.01-28-6.29-12.37-12.4-23.31-13.59-24.29-1.2-0.99-3.43-1.78-4.97-1.75-1.6 0.02-3.82 1.09-5.2 2.49zm-132.26 30.75c-1.32 1.38-2.65 4.7-3.32 8.3-0.62 3.3-1.79 8.93-2.6 12.5-0.8 3.57-1.66 7.96-1.89 9.75-0.33 2.49 0.15 3.83 2.07 5.75 1.57 1.57 3.63 2.5 5.55 2.5 1.81 0 3.97-0.91 5.33-2.25 1.5-1.48 2.85-4.82 3.93-9.75 0.9-4.12 2.44-10.98 3.41-15.24 1.77-7.68 1.76-7.76-0.32-10.5-1.56-2.05-3.12-2.84-6.04-3.06-3.04-0.23-4.43 0.23-6.12 2zm24.4 101.15c-1.58 1.58-2.57 3.72-2.59 5.6-0.04 2.08 0.86 3.92 2.8 5.8 1.56 1.51 3.19 3.88 3.62 5.25 0.42 1.38 1.5 3.3 2.4 4.28 1.11 1.22 3.07 1.78 6.13 1.76 2.47-0.01 9.22-0.7 15-1.52 5.77-0.83 15.45-2.15 21.5-2.94 10.01-1.29 11.21-1.68 13.36-4.25 1.82-2.18 2.21-3.52 1.71-5.83-0.36-1.65-1.42-3.78-2.36-4.74-0.94-0.95-2.84-1.96-4.21-2.24-1.38-0.28-11.95-0.95-23.5-1.49-11.55-0.54-23.32-1.27-26.16-1.61-4.64-0.57-5.41-0.38-7.7 1.93z"/>
	<path id="ankle_tendons" class="s2" d="m247 193.66c-4.85 0.95-8.3 2.24-9.78 3.66-1.58 1.52-2.26 3.31-2.25 5.93 0.02 2.9 0.65 4.22 2.78 5.83 1.97 1.5 3.74 1.96 6.25 1.64 1.93-0.25 7.55-1.25 12.5-2.21 4.95-0.97 9.8-2.49 10.78-3.38 1.14-1.05 1.79-3.07 1.79-5.63 0-2.53-0.66-4.64-1.79-5.72-1.27-1.24-3.36-1.71-7.28-1.66-3.02 0.04-8.88 0.73-13 1.54zm-44.57 21.17c-2.16 1.55-5.17 4.48-6.68 6.5-1.78 2.37-2.75 4.91-2.75 7.17 0 2.66 0.66 3.99 2.75 5.53 1.51 1.12 3.99 2.02 5.5 2 1.99-0.02 4.56-1.77 9.27-6.28 5.76-5.53 6.51-6.68 6.5-10-0.02-2.92-0.63-4.2-2.77-5.78-1.51-1.12-3.91-2.02-5.32-2-1.42 0.01-4.34 1.3-6.5 2.86zm-10.12 29.42c-1.12 1.24-4.34 5.74-7.17 10-3.85 5.8-5.15 8.69-5.17 11.5-0.02 2.32 0.64 4.41 1.75 5.47 1.05 1.02 3.42 1.75 5.78 1.79 2.61 0.04 4.58-0.56 5.66-1.73 0.91-0.98 4.17-5.49 7.25-10.03 3.9-5.76 5.6-9.23 5.62-11.5 0.01-2.09-0.79-4.05-2.25-5.48-1.49-1.45-3.53-2.24-5.86-2.25-2.46-0.01-4.22 0.68-5.61 2.23zm198.34 123c-1.87 2.89-5.27 7.05-7.54 9.25-3.42 3.3-4.14 4.66-4.13 7.75 0.02 2.92 0.63 4.2 2.77 5.78 1.51 1.12 3.9 2.02 5.3 2 1.79-0.02 4.8-2.2 10.04-7.28 5.6-5.43 7.79-8.32 8.7-11.5 0.66-2.34 0.92-5.04 0.56-6-0.36-0.96-1.37-2.55-2.25-3.53q-1.6-1.79-5.82-1.75c-3.99 0.03-4.42 0.33-7.63 5.28zm-19.15 26.75c-1.1 0.52-4.48 2.89-7.5 5.27-4.96 3.9-5.52 4.74-5.75 8.53-0.21 3.57 0.16 4.5 2.5 6.23 1.51 1.12 3.87 2.03 5.25 2.01 1.37-0.02 4.3-1.22 6.5-2.67 2.2-1.46 5.47-4.05 7.27-5.76 2.25-2.14 3.27-4.04 3.29-6.11 0.01-1.65-0.78-4.01-1.77-5.25-0.98-1.23-3.14-2.46-4.79-2.72-1.65-0.26-3.9-0.05-5 0.47zm-46.5 33.89c-0.82 0.46-4.65 1.64-8.5 2.63-3.85 0.99-8.02 2.74-9.28 3.89-1.6 1.47-2.26 3.2-2.25 5.84 0.02 2.91 0.64 4.2 2.78 5.78 1.51 1.12 3.76 2.02 5 2 1.24-0.01 5.51-0.92 9.5-2 3.99-1.09 8.69-2.7 10.45-3.57 1.76-0.88 3.9-2.58 4.76-3.78 0.85-1.2 1.56-3.31 1.57-4.68 0.01-1.38-1-3.5-2.25-4.73-1.6-1.56-3.48-2.23-6.28-2.22-2.2 0.01-4.68 0.38-5.5 0.84zm-163.02 26.42c-1.68 1.65-2.31 3.32-2.2 5.75 0.11 2.15 1.02 4.21 2.44 5.5 1.26 1.14 4.98 2.88 8.28 3.88 3.3 1 8.48 2.89 11.5 4.21 3.03 1.32 6.4 2.4 7.5 2.41 1.1 0 3.24-0.91 4.75-2.03 2.14-1.58 2.76-2.87 2.78-5.78 0.01-2.61-0.67-4.43-2.25-5.98-1.26-1.22-2.62-2.24-3.03-2.25-0.41-0.01-2.21-0.67-4-1.47-1.79-0.8-6.4-2.61-10.25-4.03-3.85-1.41-8.39-2.56-10.08-2.54-1.85 0.01-4.03 0.94-5.44 2.33zm0 19c-1.74 1.71-2.31 3.29-2.17 6 0.14 2.73 0.9 4.22 2.94 5.72 1.51 1.12 3.88 2.04 5.25 2.04 1.38 0 3.74-0.92 5.25-2.04 2.14-1.58 2.76-2.87 2.78-5.78 0.01-2.61-0.67-4.43-2.25-5.98-1.49-1.45-3.53-2.24-5.86-2.25-2.42-0.01-4.35 0.73-5.94 2.29z"/>
</svg>