<svg version="1.2" xmlns="http://www.w3.org/2000/svg" viewBox="0 0 177 525" width="177" height="525">
	<style>
		.s0 { opacity: .96;fill: #e66360 } 
		.s1 { opacity: .95;fill: #ed958f } 
		.s2 { opacity: .97;fill: #e15043 } 
		.s3 { fill: #d97319 } 
		.s4 { opacity: .91;fill: #f8616f } 
		.s5 { opacity: .93;fill: #fbc449 } 
		.s6 { opacity: .91;fill: #f5dbbc } 
		.s7 { opacity: .93;fill: #ea4444 } 
		.s8 { fill: #a50998 } 
		.s9 { fill: #ded604 } 
		.s10 { fill: #4a2e10 } 
	</style>
	<path id="Mozek" class="s0" d="m66 0.91c-1.93 0.38-5.15 1.79-7.16 3.14-2.02 1.35-5.21 4.25-7.1 6.45-1.89 2.2-3.95 5.01-4.59 6.25-0.63 1.24-1.15 4.72-1.15 7.75 0 5.44 0.06 5.55 5.25 9.69 3.26 2.61 6.68 4.41 9.02 4.75 2.42 0.36 3.77 1.09 3.78 2.06 0 0.82 0.9 2.96 1.98 4.75 1.27 2.09 3.21 3.61 5.47 4.25 2.41 0.69 4.2 0.66 5.75-0.08 1.94-0.94 2.71-0.63 5.59 2.25 1.84 1.83 4.65 5.92 6.25 9.08 1.6 3.16 2.91 6.42 2.91 7.25 0 0.82 0.67 1.72 1.5 2 0.82 0.27 2.17 0.05 3-0.5 1.2-0.8 1.3-1.7 0.5-4.5-0.55-1.93-0.89-3.53-0.75-3.56 0.14-0.03 2.05-0.2 4.25-0.37 2.2-0.18 4.11-0.82 4.25-1.44 0.14-0.62 1.04-1.12 2-1.1 0.96 0.02 2.65-0.89 3.75-2.03 1.1-1.14 2.79-2.05 3.75-2.03 0.96 0.02 2.84-1.43 4.17-3.22 1.33-1.79 3.15-5.05 4.06-7.25 1.06-2.58 1.5-5.78 1.24-9-0.23-2.75-0.92-6.35-1.54-8-0.62-1.65-1.4-4.35-1.75-6-0.38-1.82-2.7-4.96-5.93-8-2.92-2.75-7.49-6.33-10.15-7.95-2.67-1.63-7.55-3.52-10.85-4.22-3.3-0.69-10.05-1.22-15-1.18-4.95 0.04-10.58 0.39-12.5 0.76z"/>
	<path id="Pharynx" class="s1" d="m53.83 47.91c-3.41 0.43-5.72 1.53-8.57 4.09-2.15 1.92-4.43 4.51-5.08 5.75-0.65 1.24-1.18 2.92-1.18 3.75 0 0.82 1.35 1.95 3 2.5 2.86 0.95 2.98 1.21 2.5 5.5-0.44 3.93-0.22 4.64 1.75 5.62l2.25 1.12-5 3.47c4.14 2.48 4.5 3.34 3.99 5.29-0.37 1.41-0.08 3.71 0.68 5.27 0.76 1.59 2.39 2.99 3.83 3.28 1.37 0.28 5.65 0.05 9.5-0.5 3.85-0.56 9.02-1.04 11.5-1.07 2.54-0.04 4.97 0.5 5.57 1.23 0.59 0.71 1.6 3.09 2.25 5.29 0.64 2.2 1.29 5.8 1.43 8l0.25 4h9c-0.05-21.7-0.44-33.85-0.89-41-0.64-10.11-1.23-13.56-2.66-15.5-1.6-2.17-2.5-2.47-6.89-2.25-4.36 0.22-5.34-0.1-7.06-2.25-1.81-2.26-2.65-2.48-8.75-2.34-3.71 0.08-8.85 0.42-11.42 0.75z"/>
	<path id="Plíce" class="s2" d="m36.3 133.52c-2.31 1.38-5.74 4.63-7.63 7.24-1.88 2.61-4.67 7.21-6.19 10.24-1.52 3.02-4.23 9.32-6.02 14-1.79 4.67-4.03 12.32-4.98 17-1.22 6.08-1.53 10.64-1.06 16 0.36 4.12 1.29 9.52 2.07 12 0.77 2.47 2.17 5.17 3.11 6 1.02 0.9 3.33 1.42 5.8 1.31 2.25-0.11 6.35-0.95 9.1-1.87 2.75-0.92 6.24-2.52 7.75-3.56 1.51-1.03 3.87-1.88 5.25-1.88 1.37 0 4.19-0.7 6.25-1.56 2.06-0.86 4.09-2.1 4.51-2.75 0.42-0.66 0.74-10.64 0.71-22.19-0.04-11.55 0.19-21.23 0.51-21.5 0.32-0.28 0.56-2.53 0.53-5-0.03-3.08-0.32-4.03-0.92-3q-0.88 1.48-1.59-7c-0.39-4.68-1.05-9.4-1.46-10.5-0.42-1.1-1.5-2.79-2.4-3.75-1-1.07-3.1-1.75-5.39-1.74-2.2 0-5.49 1.04-7.95 2.51zm84.3-2.27c-1.27 1.24-2.82 4.05-3.45 6.25-0.63 2.2-1.14 6.59-1.14 9.75-0.01 3.16-0.46 5.75-1.01 5.75-0.55 0-1.19-0.56-1.42-1.25-0.23-0.69-0.46 3.7-0.51 9.75-0.06 6.79 0.46 12.91 1.34 16 0.78 2.75 1.76 9.27 2.16 14.5 0.6 7.7 1.13 9.9 2.83 11.59 1.19 1.18 4.93 2.72 8.6 3.54 5.01 1.11 7.65 2.42 11.5 5.69 2.93 2.5 6.45 4.5 8.5 4.84 1.92 0.33 4.17 0.16 5-0.38 0.82-0.53 2.62-3.63 4-6.87 2.29-5.41 2.49-7.06 2.35-19.41-0.11-10.29-0.66-15.4-2.29-21.5-1.18-4.4-3.99-11.38-6.24-15.5-2.24-4.13-5.44-9.53-7.1-12-1.66-2.48-4.19-5.78-5.62-7.34-1.43-1.56-3.84-3.47-5.35-4.25-1.51-0.78-4.35-1.41-6.3-1.41-2.32 0-4.33 0.77-5.85 2.25z"/>
	<path id="Jícen" class="s3" d="m83.6 107.25c-1.71 1.16-1.8 2.34-1.2 15.75 0.37 7.97 0.85 18.32 1.07 23 0.23 4.67 1.16 12.1 2.07 16.5 0.92 4.4 2.8 10.92 4.19 14.5 1.39 3.57 4.27 10.44 6.4 15.25 2.13 4.81 3.87 9.54 3.86 10.5-0.01 0.96 0.69 5.8 1.55 10.75 0.86 4.95 1.99 9.45 2.53 10 0.53 0.55 0.95 1.9 0.93 3-0.02 1.1 0.54 2.57 1.23 3.27 0.7 0.69 2.73 1.26 4.52 1.25 2.72-0.02 3.35-0.47 3.88-2.77 0.34-1.51 0.31-4.55-0.07-6.75-0.39-2.2-1-4.45-1.37-5-0.36-0.55-1.39-4.38-2.28-8.5-0.9-4.13-2.6-11.1-3.78-15.5-1.19-4.4-2.54-8.45-3.01-9-0.47-0.55-2.31-5.05-4.1-10-1.78-4.95-3.87-11.7-4.63-15-0.75-3.3-1.56-9.83-1.78-14.5-0.23-4.68-0.74-14.58-1.13-22-0.57-10.7-1.06-13.76-2.35-14.77-0.9-0.69-2.32-1.26-3.16-1.25-0.83 0.01-2.35 0.58-3.37 1.27z"/>
	<path id="Thyroidea" fill-rule="evenodd" class="s4" d="m75.86 97.96c0.9-0.03 2.13 0.53 2.72 1.25 0.6 0.71 1.57 2.64 2.17 4.29 0.6 1.65 1.35 4.24 1.67 5.75 0.53 2.52 0.93 2.73 4.71 2.5 4.08-0.25 4.16-0.33 6.25-6.15 1.17-3.26 3.02-6.4 4.11-7q2-1.1 3.41-0.09c0.77 0.54 2 3.46 2.73 6.49 0.81 3.36 1.08 7.64 0.69 11-0.48 4.16-1.3 6.17-3.4 8.25-1.52 1.51-3.59 2.76-4.59 2.77-1.01 0.01-3.18-1.35-4.83-3.02-1.65-1.67-3.45-3.04-4-3.04-0.55 0-2.35 1.37-4 3.04-1.65 1.67-3.79 3.03-4.75 3.02-0.96-0.01-3.12-1.26-4.79-2.77-2.84-2.57-3.05-3.24-3.17-10.25-0.08-4.13 0.23-8.85 0.67-10.5 0.45-1.65 1.25-3.56 1.79-4.25 0.53-0.69 1.71-1.27 2.61-1.29zm11.54 1.25c1.07 0.16 2.04 0.82 2.16 1.46 0.12 0.67-0.6 0.99-1.67 0.75-1.04-0.23-2.59 0.14-3.43 0.83-0.99 0.79-1.61 0.87-1.7 0.2-0.09-0.58 0.48-1.61 1.27-2.29 0.79-0.68 2.31-1.11 3.37-0.95z"/>
	<path id="Thymus" class="s5" d="m73 152l4-18 3-4 4 2 1-4h4l6 13 2 1 1 7v8l-3 3h-4l-5-3h-2l-1 2h-8l-2-4z"/>
	<path id="Skelet" fill-rule="evenodd" class="s6" d="m66.5 227.5l0.8 6.5c0.44 3.57 1.45 7.4 2.24 8.5 0.8 1.1 2.36 3.23 3.47 4.74 1.46 1.99 2.05 4.46 2.16 9 0.11 4.95-0.44 7.52-2.65 12.26-1.66 3.58-3.03 8.62-4.02 19h-8.99l-0.76-5.75c-0.41-3.16-1.21-6.54-1.78-7.5-0.73-1.23-0.8 0.58-0.25 6.13 0.75 7.55 0.7 7.87-1.22 7.49-1.56-0.3-2.37-1.93-3.68-7.38-0.93-3.84-2.11-7.67-2.64-8.49-0.52-0.83-0.66-3.6-0.31-6.17 0.35-2.58 0.97-4.49 1.38-4.25 0.41 0.23 1.2-0.26 1.75-1.08 0.75-1.12 0.49-1.82-1-2.75-1.43-0.89-2.01-2.33-2-5 0-2.86 0.81-4.64 3.41-7.5 2.87-3.15 3.53-4.78 4.13-10.25 0.4-3.58 0.94-6.86 1.2-7.3 0.26-0.44 2.34-0.67 8.76-0.2zm7.17 31.25c0.36-0.41 0.03-0.76-0.75-0.78-0.78-0.01-1.08 0.32-0.67 0.75 0.41 0.43 1.05 0.44 1.42 0.03z"/>
	<path id="Svaly" class="s7" d="m63.58 230.57c-0.32 0.24 0.8 1.67 2.48 3.18 2.11 1.9 3.81 5.08 5.49 10.25 1.33 4.12 3.69 9.52 5.25 12 1.56 2.47 5.24 6.52 8.17 9 2.94 2.47 7.29 6.41 9.68 8.75 2.39 2.34 4.94 5.71 5.67 7.5l1.32 3.25c1.72-4.95 1.78-8.28 1.21-12.5-0.48-3.58-1.59-8.98-2.47-12-0.87-3.03-2.62-7.53-3.87-10-1.26-2.48-4.58-6.64-7.4-9.25-2.81-2.61-7.47-5.88-10.36-7.26-2.89-1.38-7.35-2.7-9.92-2.93-2.58-0.23-4.94-0.23-5.25 0.01z"/>
	<path id="Neck Lesion" class="s8" d="m63.79 73.25c-0.43-0.25-1-0.2-1.37 0.11-0.37 0.32-0.42 0.82-0.12 1.19l5 6.35-4.45 1.26c-0.44 0.12-0.74 0.48-0.74 0.88 0 0.41 0.3 0.77 0.74 0.89l4.61 1.3-2.37 3.91c-0.22 0.36-0.14 0.81 0.2 1.1 0.33 0.28 0.84 0.35 1.25 0.16l4.5-2.05 1.49 4c0.15 0.39 0.56 0.65 1.02 0.65 0.47 0 0.88-0.26 1.02-0.65l1.5-4 4.49 2.05c0.42 0.19 0.93 0.13 1.26-0.16 0.33-0.3 0.41-0.74 0.19-1.1l-2.36-3.91 4.61-1.3c0.44-0.12 0.74-0.48 0.74-0.89 0-0.4-0.3-0.76-0.74-0.88l-4.76-1.34 1.15-2.74c0.14-0.34 0.04-0.72-0.26-0.98-0.29-0.26-0.73-0.34-1.12-0.22l-3.15 1-1.55-4.15c-0.14-0.38-0.55-0.64-1.02-0.64-0.46 0-0.87 0.26-1.02 0.64l-1.44 3.88z"/>
	<path id="Neck Lymph Node" class="s9" d="m99.84 92.32c-0.22-0.23-0.55-0.32-0.86-0.24-0.31 0.09-0.55 0.33-0.63 0.64l-0.59 2.31-2.28-0.65c-0.31-0.09-0.65 0-0.87 0.23-0.23 0.22-0.32 0.56-0.23 0.87l0.65 2.28-2.31 0.59c-0.31 0.08-0.55 0.32-0.64 0.63-0.08 0.31 0.01 0.64 0.24 0.86l1.71 1.66-1.71 1.66c-0.23 0.22-0.32 0.55-0.24 0.86 0.09 0.31 0.33 0.55 0.64 0.63l2.31 0.59-0.65 2.28c-0.09 0.31 0 0.65 0.23 0.87 0.22 0.23 0.56 0.32 0.87 0.23l2.28-0.65 0.59 2.31c0.07 0.31 0.32 0.55 0.63 0.64 0.31 0.08 0.63-0.01 0.86-0.24l1.66-1.71 1.66 1.71c0.23 0.23 0.55 0.32 0.86 0.24 0.31-0.09 0.55-0.33 0.63-0.64l0.59-2.31 2.28 0.65c0.31 0.09 0.65 0 0.87-0.23 0.23-0.22 0.32-0.56 0.23-0.87l-0.65-2.28 2.31-0.59c0.31-0.07 0.55-0.32 0.64-0.63 0.08-0.31-0.01-0.63-0.24-0.86l-1.71-1.66 1.71-1.66c0.23-0.23 0.32-0.55 0.24-0.86-0.09-0.31-0.33-0.55-0.64-0.63l-2.31-0.59 0.65-2.28c0.09-0.31 0-0.65-0.23-0.87-0.22-0.23-0.56-0.32-0.87-0.23l-2.28 0.65-0.59-2.31c-0.08-0.31-0.32-0.55-0.63-0.64-0.31-0.08-0.64 0.01-0.86 0.24l-1.66 1.71z"/>
	<path id="Neck Tissues" class="s10" d="m61.41 98.25c-0.38 0.69-0.36 3.72 0.03 6.75 0.53 4.06 0.24 7.26-1.11 12.2-1.01 3.69-1.5 7.06-1.09 7.5 0.41 0.44 1.42 0.46 2.25 0.05 0.83-0.41 2.24-2.44 3.14-4.5 1-2.31 1.64-6.63 1.67-11.25 0.03-4.12-0.48-8.51-1.12-9.75-0.65-1.24-1.61-2.25-2.13-2.25-0.52 0-1.26 0.56-1.64 1.25z"/>
</svg>