<svg version="1.2" xmlns="http://www.w3.org/2000/svg" viewBox="0 0 400 464" width="400" height="464">
	<style>
		.s0 { fill: #cece22 } 
		.s1 { fill: #b4b4b4 } 
		.s2 { fill: #60a5fa; }
		.s3 { opacity: .99;fill: #011ece } 
		.s4 { opacity: .99;fill: #a4071d } 
		.s5 { fill: #c45c5c } 
	</style>
	<path id="Knee_joint" class="s0" d="m159.5 47.69c-2.75 2.18-11.79 10.67-20.08 18.88-10.24 10.13-16.17 16.86-18.46 20.93-1.86 3.3-5.65 8.75-8.42 12.11-2.77 3.36-9.55 11.46-15.06 18-5.52 6.54-11.69 14.36-13.71 17.39-2.03 3.02-5.08 9.55-6.78 14.5-1.7 4.95-4.98 11.92-7.29 15.5-2.31 3.57-4.77 7.4-5.47 8.5-0.69 1.1-2.15 3.35-3.24 5-1.09 1.65-1.98 3.9-1.99 5 0 1.1-0.87 4.7-1.93 8-1.07 3.3-2.48 8.25-3.14 11-0.66 2.75-1.8 7.92-2.53 11.5-0.73 3.57-1.34 9.76-1.36 13.75-0.02 3.99-0.71 10.96-1.52 15.5-0.82 4.54-2.37 13.87-3.45 20.75-1.31 8.3-2.03 18.38-2.15 30-0.11 10.49 0.29 19.7 1 23 0.65 3.02 1.39 5.84 1.63 6.25 0.25 0.41 2.59 1.81 5.2 3.11 2.61 1.3 8.35 3.52 12.75 4.93 4.4 1.42 12.27 3.61 17.5 4.88 8.11 1.96 12.15 2.3 27.64 2.32 15.31 0.01 18.44 0.26 20 1.63 1.03 0.9 3.43 2.09 5.36 2.67 1.92 0.57 8.67 1.28 15 1.59 8.03 0.38 13.46 1.21 18 2.75 5.67 1.92 8.62 2.21 23 2.21 9.07 0 23.25-0.5 31.5-1.1 8.25-0.61 28.5-1.14 45-1.18 24.26-0.06 31.15-0.39 36-1.69 5.84-1.57 6.07-1.55 8.75 0.51 1.51 1.17 3.4 2.12 4.2 2.12 0.8 0 3.61-2.15 6.25-4.77 2.91-2.89 6.48-8.12 9.05-13.25 3.02-6.05 4.69-11.06 5.8-17.48 0.85-4.95 2.37-11.48 3.37-14.5 1-3.03 2.29-7.3 2.87-9.5 0.58-2.2 1.81-6.93 2.74-10.5 0.93-3.58 2.06-7.63 2.51-9 0.44-1.38 1.31-6.1 1.92-10.5 0.61-4.4 1.36-17.45 1.67-29 0.47-18.11 0.27-22.79-1.5-34-1.13-7.15-2.5-15.48-3.06-18.5-0.55-3.03-1.24-6.51-1.54-7.75-0.32-1.35-1.93-2.85-4.03-3.75-2.76-1.18-4.04-2.72-6.06-7.25-1.44-3.23-4.44-7.51-6.84-9.75-2.35-2.2-6.97-7.15-10.27-11-3.59-4.19-6.82-9.21-8.05-12.5-1.12-3.03-3.7-8.88-5.73-13-2.03-4.13-4.4-8.85-5.27-10.5-0.88-1.65-4.11-6.32-7.19-10.37-3.07-4.06-6.47-8.56-7.54-10-1.07-1.45-4.68-5.56-8.02-9.13-3.33-3.58-7.48-8.98-9.2-12-1.72-3.03-5.09-7.67-7.48-10.32l-4.35-4.81c-8.53 1.49-14.38 2.86-18.5 4.02-6.87 1.93-8.47 2.01-19 1.06-6.33-0.58-14.2-1.44-17.5-1.93-3.3-0.48-8.03-1.34-10.5-1.9-2.48-0.57-9.23-1.33-15-1.71l-10.5-0.67zm-44 311.03c1.65 0.22 4.58 0.22 6.5 0 1.93-0.22 0.58-0.4-3-0.4-3.57 0-5.15 0.18-3.5 0.4z"/>
	<path id="LFC" class="s1" d="m105 120.15c-3.03 2.27-10.45 9.29-16.5 15.59-6.05 6.3-11.5 12.88-12.11 14.61-0.61 1.73-3.02 6.3-5.36 10.15-2.77 4.56-4.57 8.92-5.14 12.5-0.48 3.03-0.88 8.43-0.89 12-0.01 3.57 0.72 11 1.61 16.5 0.9 5.5 1.95 14.5 2.34 20 0.39 5.5 1.53 13.15 2.52 17 0.99 3.85 2.48 8.35 3.31 10 0.83 1.65 2.46 4.03 3.61 5.29 1.16 1.26 3.69 2.72 5.61 3.25 1.92 0.52 6.09 0.95 9.25 0.95 3.16 0.01 9.24-0.48 13.5-1.08 4.26-0.61 10.22-1.95 13.25-2.99 3.44-1.19 8.31-1.91 13-1.93 4.12-0.01 9.26-0.58 11.42-1.26 2.16-0.67 7.11-3.88 11-7.11 3.89-3.24 9.46-8.19 12.37-11 2.91-2.82 6.33-7.37 7.59-10.12 1.27-2.75 2.91-6.57 3.65-8.5 0.75-1.93 1.83-3.82 2.41-4.21 0.68-0.46 1.06-7.02 1.06-18.15 0-14.69-0.26-17.72-1.63-19.29-0.9-1.02-1.98-2.98-2.41-4.35-0.42-1.38-2.01-4.53-3.54-7-1.52-2.48-3.03-5.63-3.36-7-0.32-1.38-2.75-4.75-5.4-7.5-2.65-2.75-6.8-6.73-9.24-8.83-2.43-2.11-6.23-5.49-8.44-7.5-2.2-2.02-6.25-5.24-9-7.16-3.85-2.7-7.02-3.87-13.98-5.2-4.95-0.94-10.35-1.73-12-1.76-2.01-0.03-4.81 1.32-8.5 4.1z"/>
	<path id="LTC" class="s1" d="m177.36 249.77c-1.17 0.95-3.25 3.53-4.62 5.73-1.36 2.2-3.33 4.7-4.36 5.56-1.03 0.86-5.03 2.32-8.88 3.24-3.85 0.93-11.95 2.17-18 2.76-6.05 0.58-12.35 1.47-14 1.97-1.65 0.5-7.05 1.35-12 1.9-4.95 0.54-12.38 1.68-16.5 2.53-4.13 0.84-11.89 1.54-17.25 1.54-5.5 0-9.97 0.44-10.25 1-0.28 0.55-1.29 0.99-2.25 0.97-0.96-0.02-2.65 0.93-3.75 2.1-1.9 2.04-1.98 3.28-1.68 25.29 0.27 19.72 0.57 23.49 2 25.51 1.09 1.54 4.15 3.16 8.68 4.6 3.85 1.22 9.25 2.56 12 2.98 2.75 0.41 7.02 1.94 9.48 3.4 2.46 1.46 5.39 3.19 6.5 3.86 1.11 0.66 3.14 1.71 4.52 2.32 1.37 0.62 4.98 3.45 8.02 6.3 3.03 2.84 7.92 7.19 10.86 9.67 2.94 2.48 6.88 5.63 8.76 7 1.89 1.38 3.41 2.84 3.39 3.25-0.02 0.41 1.12 1.99 2.54 3.5 1.41 1.51 3.15 3.88 3.87 5.25 0.72 1.38 4.87 5.88 9.22 10 6.16 5.84 9.01 7.81 12.87 8.9 3.97 1.12 6.02 1.17 10.22 0.25 2.89-0.63 5.36-1.49 5.5-1.9 0.14-0.41 2.27-2.37 4.75-4.35 3.51-2.81 4.87-4.79 6.17-9 0.92-2.97 2.92-14.4 4.45-25.4 2.54-18.38 2.67-20.69 1.53-28.5-0.68-4.67-1.49-10.98-1.79-14-0.31-3.02-0.91-5.95-1.33-6.5-0.43-0.55-1.17-3.25-1.65-6-0.49-2.75-0.88-13.77-0.88-24.5 0-10.73-0.4-21.75-0.88-24.5-0.49-2.75-1.62-5.8-2.5-6.78-1.12-1.23-3.02-1.77-6.12-1.73-2.7 0.03-5.35 0.74-6.64 1.78z"/>
	<path id="MFC" class="s1" d="m266.5 123.93c-1.1 1.21-4.25 3.24-7 4.51-2.75 1.27-5.68 2.95-6.5 3.73-0.82 0.79-3.75 2.97-6.5 4.86-2.75 1.89-7.7 6.14-11 9.45-5.02 5.04-6.37 7.16-8.24 13.02-1.23 3.85-2.24 9.47-2.24 12.5-0.01 3.02 0.48 8.2 1.09 11.5 0.6 3.3 1.76 8.47 2.57 11.5 0.81 3.02 1.86 6.4 2.34 7.5 0.48 1.1 2.2 4.93 3.82 8.5 1.62 3.57 4.8 12.35 7.06 19.5 3.62 11.45 4.61 13.51 8.35 17.26 2.34 2.34 5.38 4.88 6.75 5.66 1.38 0.77 4.98 2.58 8 4.01 4 1.9 9.6 3.18 20.5 4.7l15 2.08c18.79-5.9 21.96-7.45 25.58-10.65 2.51-2.23 5.89-5.79 7.5-7.91 1.6-2.11 4.42-7.74 6.26-12.5 1.83-4.76 3.77-10.45 4.3-12.65 0.54-2.2 1.5-6.48 2.14-9.5 0.64-3.02 1.17-12.03 1.19-20 0.02-11.88-0.29-15.13-1.73-18-0.97-1.93-2.04-5.53-2.38-8-0.34-2.48-1.6-6.3-2.8-8.5-1.19-2.2-2.78-5.57-3.52-7.5-0.74-1.93-2.36-5.75-3.59-8.5-1.24-2.75-3.55-6.8-5.14-9-1.72-2.39-4.89-4.97-7.85-6.4-4.69-2.27-6.22-2.42-28.46-2.88-23.24-0.48-23.52-0.46-25.5 1.71z"/>
	<path id="MTC" class="s1" d="m195.24 248.25c-2.08 2.22-2.11 3.09-2.84 68.25-0.71 63.58-0.67 66.19 1.18 71.3 1.09 3.02 3.86 7.4 6.42 10.18 3.61 3.91 5.69 5.22 10.5 6.61 3.3 0.95 8.25 2.16 11 2.7 2.75 0.53 11.97 1.16 20.5 1.4 15.1 0.43 15.57 0.38 18.05-1.88 1.41-1.27 4.11-3.49 6-4.94 1.9-1.45 4.57-3.7 5.95-5.01 1.37-1.31 4.52-4.82 7-7.8 2.48-2.97 9.79-10.73 16.25-17.24 6.46-6.5 11.75-12.38 11.74-13.07 0-0.69 1.71-4.62 3.81-8.75 2.1-4.12 4.61-9.75 5.58-12.5 0.96-2.75 2.06-6.6 2.44-8.56 0.37-1.96 1.19-4.21 1.8-5 0.62-0.79 2.12-4.81 3.34-8.94 1.83-6.22 2.15-9.4 1.87-18.67-0.31-10.35-0.52-11.36-2.83-13.72-2.25-2.29-3.47-2.59-12-3.01-5.23-0.26-14-0.89-19.5-1.4-5.5-0.51-13.38-1.71-17.5-2.66-4.13-0.95-10.65-2.64-14.5-3.76-3.85-1.11-7.45-2.43-8-2.92-0.55-0.49-1.79-0.89-2.75-0.88-0.96 0.01-3.89-1.78-6.5-3.99-2.61-2.2-5.54-4-6.5-4-0.96 0.01-1.75-0.33-1.76-0.74 0-0.41-1.45-1.65-3.21-2.75-1.77-1.1-4.35-2.78-5.74-3.74-1.4-0.95-3.55-2.19-4.79-2.75-1.24-0.55-3.49-0.99-5-0.97-1.51 0.03-3.43-0.67-4.25-1.54-1.06-1.13-3.28-1.58-7.58-1.54-4.98 0.03-6.46 0.45-8.18 2.29z"/>
	<path id="Fibula" class="s1" d="m43.79 327.88c-1.83 1.6-4.07 5.04-5.04 7.75-0.97 2.68-1.74 7.57-1.72 10.87 0.02 3.3 0.68 10.27 1.47 15.5 0.79 5.23 1.93 11.52 2.54 14 0.6 2.48 1.4 4.73 1.78 5 0.37 0.27 2.47 4.1 4.65 8.5 2.19 4.4 7.99 13.4 12.89 20 4.9 6.6 9.14 12.68 9.42 13.5 0.28 0.82 1.3 3.3 2.25 5.5 0.95 2.2 2.46 6.59 3.35 9.75 0.91 3.24 1.62 9.46 1.62 14.25 0 8.1 0.13 8.6 2.75 10.58 2.44 1.85 3.55 2 9.75 1.36 3.85-0.4 9.25-1.32 12-2.04 3.17-0.84 6.01-2.44 7.75-4.36 1.51-1.67 2.94-4.05 3.17-5.29 0.23-1.24 1.17-7.2 2.09-13.25 0.91-6.05 2.07-11.45 2.56-12 0.49-0.55 1.57-3.48 2.39-6.5 0.82-3.02 1.8-9.32 2.16-14 0.47-6.09 0.22-10.63-0.91-16-0.86-4.12-1.86-9.3-2.22-11.5-0.35-2.2-1.45-5.8-2.44-8-0.98-2.2-2.86-5.17-4.17-6.59-1.31-1.43-3.96-3.76-5.88-5.19-1.92-1.43-6.42-4.1-10-5.95-3.58-1.84-8.53-3.99-11-4.76-2.47-0.77-5.63-2.06-7-2.86-1.38-0.81-6.44-5.44-11.25-10.31-5.2-5.26-9.56-8.84-10.75-8.84-1.1 0-2.23-0.45-2.5-1-0.27-0.55-1.83-1-3.46-1-1.84 0-4.22 1.09-6.25 2.88z"/>
	<path id="LCL" class="s2" d="m60.5 157.45c-1.33 1.35-2.42 3.49-2.43 4.75-0.02 1.27-1.88 7.48-4.14 13.8-2.27 6.32-4.53 12.85-5.04 14.5-0.51 1.65-1.82 9.52-2.9 17.5-1.09 7.98-2.48 16.3-3.09 18.5-0.61 2.2-2.21 12.1-3.55 22-1.92 14.18-2.57 24.37-3.04 48-0.33 16.5-0.31 32.02 0.04 34.5 0.35 2.48 1.54 5.51 2.65 6.75 1.39 1.56 3.15 2.26 5.75 2.28 2.32 0.02 4.41-0.64 5.47-1.75 1.55-1.6 1.77-5.32 2.11-36.78 0.32-29.01 0.76-37.74 2.58-51 1.21-8.8 2.37-16.23 2.58-16.5 0.21-0.27 1.08-4.77 1.94-10 0.85-5.23 2.01-13.1 2.56-17.5 0.56-4.4 1.98-10.92 3.15-14.5 1.17-3.57 2.45-6.95 2.85-7.5 0.4-0.55 1.68-4.15 2.84-8 1.16-3.85 2.42-9.02 2.81-11.5 0.62-4.01 0.41-4.8-1.97-7.25-1.76-1.81-3.71-2.75-5.72-2.75-1.91 0-3.94 0.91-5.45 2.45z"/>
	<path id="MCL" class="s2" d="m340.5 176.45c-1.33 1.35-2.43 3.04-2.46 3.75-0.03 0.72 0.61 6.25 1.41 12.3 0.81 6.05 2.28 17.3 3.26 25 0.98 7.7 1.73 18.95 1.66 25-0.09 7.44-1 15.36-2.81 24.5-1.48 7.42-5.13 21.37-8.13 31-3 9.62-6.08 19.07-6.85 21-0.77 1.92-2.66 6.65-4.21 10.5-1.55 3.85-3.28 7.91-3.84 9.01-0.57 1.11-6.85 10.79-13.96 21.5-7.11 10.72-17.27 25.34-22.59 32.49-5.32 7.15-11.6 16.15-13.96 20-2.36 3.85-5.32 9.25-6.58 12-1.27 2.75-3.46 9.27-4.88 14.5-1.43 5.22-3.96 14.22-5.63 20-1.67 5.77-3.28 11.62-3.59 13-0.3 1.37 0.06 3.52 0.8 4.77 0.75 1.24 2.48 2.76 3.86 3.37 1.9 0.84 3.29 0.78 5.8-0.27 1.95-0.81 3.84-2.6 4.63-4.37 0.73-1.65 2.45-6.83 3.83-11.5 1.38-4.68 3.5-12.55 4.71-17.5 1.21-4.95 3.56-11.93 5.22-15.5 1.66-3.58 5.46-10.1 8.45-14.5 2.99-4.4 8.11-11.6 11.39-16 3.27-4.4 12.42-17.68 20.34-29.5 7.91-11.83 15.29-23.3 16.41-25.5 1.11-2.2 3.46-7.6 5.21-12 1.76-4.4 5.2-14.08 7.66-21.5 2.46-7.43 5.96-19.35 7.79-26.5 1.82-7.15 3.83-15.93 4.46-19.5 0.64-3.58 1.57-11 2.08-16.5 0.51-5.63 0.55-13.28 0.08-17.5-0.45-4.13-1.57-14.03-2.48-22-0.91-7.98-2.16-18.33-2.78-23-0.88-6.69-1.62-8.98-3.46-10.75-1.38-1.33-3.59-2.25-5.39-2.25-1.91 0-3.94 0.91-5.45 2.45z"/>
	<path id="LCA" class="s2" d="m173.98 161.31c-1.41 1.39-2.28 3.3-2.15 4.75 0.12 1.34 1.95 6.72 4.07 11.94 2.11 5.22 4.83 14 6.02 19.5 1.2 5.5 3.09 15.62 4.21 22.5 1.11 6.87 2.67 14.41 3.45 16.75 0.78 2.34 2.88 7.25 4.67 10.92 1.79 3.67 4.49 7.94 6 9.5q2.75 2.83 5.8 2.83c1.92 0 3.94-0.92 5.5-2.5 1.41-1.44 2.45-3.67 2.44-5.25 0-1.51-0.92-4.1-2.05-5.75-1.12-1.65-3.38-5.93-5.02-9.5-1.65-3.57-3.46-9.43-4.04-13-0.58-3.57-2.63-14.6-4.56-24.5-1.92-9.9-3.85-18.45-4.28-19-0.43-0.55-1.33-2.8-1.99-5-0.67-2.2-2.31-6.36-3.63-9.25-1.33-2.89-3.32-5.7-4.42-6.25-1.1-0.55-3.27-1-4.83-1-1.61 0-3.85 1-5.19 2.31z"/>
	<path id="LCP" class="s2" d="m215 188.72c-3.03 0.19-6.96 1.01-8.75 1.82-2.11 0.95-3.81 2.77-4.86 5.21-0.94 2.19-1.44 5.41-1.2 7.75 0.23 2.2 1.51 5.41 2.86 7.14 1.35 1.72 3.58 3.82 4.95 4.65 1.38 0.83 5.43 2.46 9 3.62 3.57 1.17 8.07 2.13 10 2.14 1.93 0.01 4.63-0.83 6-1.86 1.38-1.03 3.09-3.86 3.82-6.28 1.17-3.94 1.1-4.89-0.61-8.91-1.05-2.48-2.68-5.18-3.61-6-0.93-0.82-1.67-2.29-1.64-3.25 0.02-0.96-1.08-2.87-2.46-4.25-1.61-1.61-3.47-2.43-5.25-2.32-1.51 0.11-5.22 0.35-8.25 0.54z"/>
	<path id="L_men" class="s4" d="m68.05 255.75c-1.15 1.51-2.53 4.89-3.07 7.5-0.54 2.61-0.98 5.76-0.99 7 0 1.24 0.67 3.26 1.5 4.5 1.06 1.58 2.48 2.24 4.76 2.22 1.86-0.01 5.39-1.36 8.25-3.14 2.75-1.71 6.35-3.48 8-3.93 1.81-0.49 5.05-0.34 8.2 0.39 4.76 1.11 5.37 1.04 7.28-0.79 1.15-1.1 2.06-2.68 2.04-3.5-0.03-0.82-0.38-2.04-0.79-2.71-0.4-0.66-5.45-2.4-11.23-3.86-5.78-1.46-12.19-3.51-14.25-4.55-2.06-1.03-4.62-1.88-5.68-1.88-1.07 0-2.88 1.24-4.02 2.75z"/>
	<path id="M_men" class="s4" d="m316 261.04c-5.77 2.22-12.86 4.69-15.75 5.5-4.41 1.23-5.34 1.9-5.83 4.21-0.38 1.77-0.05 3.28 0.92 4.25 0.82 0.82 5.02 2.09 9.33 2.81 4.31 0.72 10.53 1.8 13.83 2.4 3.3 0.59 7.69 0.79 9.75 0.44 2.06-0.36 4.93-1.66 6.37-2.9 2.08-1.78 2.72-3.39 3.09-7.75 0.39-4.61 0.08-6.07-1.9-9-1.85-2.73-3.13-3.55-5.84-3.74-2.14-0.15-7.49 1.3-13.97 3.78z"/>
	<path id="Patella" class="s1" d="m189.5 26.52c-2.75 0.77-6.58 1.4-8.5 1.42-1.93 0.01-4.4 0.69-5.5 1.51-1.1 0.82-4.03 1.49-6.5 1.49q-4.51-0.01-6.2 1.78c-0.94 0.98-3.32 5.15-5.3 9.28-1.98 4.12-4.02 8.29-4.55 9.25-0.52 0.96-0.96 4.56-0.96 8-0.01 3.44 0.33 7.8 0.75 9.69 0.48 2.2 2.86 5.64 6.58 9.5 3.2 3.34 10.62 13.2 16.5 21.93 5.87 8.73 12.25 17.13 14.18 18.67 1.92 1.54 5.3 3.56 7.5 4.49 2.52 1.06 6.95 1.72 12 1.78 5.51 0.07 8.93-0.39 11-1.47 1.65-0.87 4.45-3.1 6.22-4.96 1.78-1.86 4.83-6.08 6.79-9.38 1.95-3.3 3.54-6.11 3.52-6.25-0.02-0.14 1.26-2.16 2.85-4.5 1.58-2.34 4.57-7.4 6.65-11.25 2.08-3.85 4.27-7.9 4.87-9 0.61-1.1 1.41-2.23 1.79-2.5 0.38-0.28 1.39-3.43 2.24-7 0.86-3.58 1.85-10.1 2.21-14.5 0.36-4.4 0.37-9.24 0.01-10.75-0.36-1.51-2.11-4.37-3.9-6.34-1.79-1.98-4.6-4.24-6.25-5.02-1.65-0.79-4.24-1.42-5.75-1.41-1.51 0.01-3.54 0.54-4.5 1.17-1.43 0.94-2.62 0.57-6.5-2-2.61-1.73-7.11-3.6-10-4.16-2.89-0.56-9.98-0.98-15.75-0.93-5.78 0.04-12.75 0.7-15.5 1.46z"/>
	<path id="Knee_bones" class="s1" d="m155.33 375.27c-1.67 1.25-4.24 3.84-5.71 5.75-1.88 2.44-2.68 4.67-2.67 7.48 0 2.2 1.2 6.7 2.66 10 1.8 4.07 2.96 9.05 3.62 15.5 0.53 5.22 1.26 22.77 1.62 39 0.48 22.04 1 30.13 2.02 32 0.75 1.37 2.32 3.29 3.5 4.27 1.17 0.97 4.38 2.93 7.13 4.36l5 2.59 69.25-0.72c8.95-6.2 12.61-9.58 13.91-11.5 2.23-3.33 2.35-4.34 2.4-20.5 0.02-9.35 0.44-21.95 0.92-28 0.76-9.52 1.34-11.94 4.33-18 1.89-3.85 4.18-8.69 5.07-10.75 0.89-2.06 1.63-5.66 1.65-8 0.02-2.78-0.76-5.44-2.25-7.7-1.25-1.9-3.86-4.5-5.78-5.78-2.32-1.54-4.94-2.32-7.75-2.3-2.34 0.02-5.49 0.64-7 1.4-1.51 0.75-3.99 2.77-5.5 4.5-2.2 2.51-3.8 3.26-8 3.76-3.86 0.46-6.11 0.2-8.5-1-1.79-0.9-4.26-1.62-5.5-1.6-1.33 0.01-4.7-2.17-8.25-5.35-3.3-2.95-7.01-5.89-8.25-6.52-1.24-0.64-4.61-1.17-7.5-1.19-4-0.02-6.2 0.59-9.25 2.57-2.73 1.78-4.79 2.43-6.5 2.04-1.38-0.31-3.63-1.73-5-3.16-1.38-1.44-3.74-3.24-5.25-4.02-1.51-0.77-4.69-1.4-7.07-1.4-2.93 0-5.29 0.73-7.35 2.27z"/>
	<path id="Knee_muscles" class="s5" d="m366.29 323.25c-1.13 1.24-2.34 4.27-2.69 6.75-0.51 3.57-2.41 6.88-9.19 16-4.7 6.32-10.82 15.32-13.6 20-2.78 4.67-5.84 9.62-6.81 11-0.97 1.37-2.95 4.52-4.39 7-1.45 2.47-4.41 8.1-6.58 12.5-2.17 4.4-5.15 11.15-6.62 15-1.47 3.85-3.54 9.02-4.61 11.5-1.07 2.47-2.61 6.07-3.42 8-0.81 1.92-1.91 4.29-2.43 5.25-0.52 0.96-3 5.46-5.5 10-2.51 4.54-5.15 10.72-5.88 13.75-0.73 3.02-1.89 8.65-2.59 12.5-0.71 3.96-0.98 9.17-0.6 12 0.41 3.14 1.49 5.86 2.89 7.31 1.41 1.45 3.89 2.51 6.73 2.86 4.46 0.56 4.58 0.49 13.5-7.36 4.95-4.36 12.49-11.95 16.75-16.87 4.26-4.92 9.72-11.87 12.12-15.44 2.41-3.58 5.74-9.2 7.41-12.5 1.67-3.3 4.84-9.83 7.05-14.5 2.2-4.68 5.18-12.1 6.63-16.5 1.44-4.4 3.04-8.9 3.54-10 0.51-1.1 1.39-4.7 1.97-8 0.57-3.3 1.05-8.48 1.05-11.5 0.01-3.03 0.64-9.33 1.4-14 0.77-4.68 2.55-12.78 3.96-18 1.42-5.23 2.92-12.74 3.35-16.69 0.73-6.83 0.64-7.32-1.73-9.78-1.79-1.85-3.52-2.57-6.08-2.56-2.42 0.02-4.25 0.76-5.63 2.28z"/>
</svg>