<svg version="1.2" xmlns="http://www.w3.org/2000/svg" viewBox="0 0 300 500" width="300" height="500">
	<style>
		.s0 { fill: #ecde69 } 
		.s1 { fill: #ff9bc8 } 
		.s2 { fill: #bd159f } 
		.s3 { fill: #a6a60d } 
	</style>
	<path id="Rectum_mesorectalfat" fill-rule="evenodd" class="s0" d="m235.93 98.02c3.06 0 8.04 0.59 11.07 1.29 3.02 0.7 8.2 2.89 11.5 4.86 4.04 2.41 7.57 5.66 10.82 9.95 2.65 3.51 5.1 7.51 5.43 8.88 0.34 1.38 1.2 3.63 1.92 5 0.73 1.38 1.31 3.18 1.29 4-0.01 0.82 0.66 2.85 1.5 4.5 1.29 2.53 1.53 8.77 1.53 39.5 0 31.76-0.21 36.89-1.62 39.5-1.23 2.27-1.82 7.53-2.43 21.5-0.44 10.18-1.24 19.85-1.76 21.5-0.53 1.65-1.54 5.7-2.24 9-0.7 3.3-1.72 6.9-2.27 8-0.55 1.1-1.34 3.35-1.77 5-0.42 1.65-1.55 5.02-2.52 7.5-0.96 2.48-2 8.58-2.31 13.57-0.48 7.69-0.96 9.6-3.15 12.5-1.41 1.89-4.23 4.22-9.92 6.93l-0.25 11.33c-0.23 10.43-0.46 11.61-2.83 14.75-1.41 1.88-4.34 4.28-6.5 5.32-3.34 1.63-6.93 1.98-24.42 2.37-17.71 0.4-23.56 0.11-43-2.15-12.38-1.44-23.69-2.73-25.15-2.87-2.31-0.22-2.73 0.2-3.27 3.25-0.33 1.93-1.65 4.85-2.92 6.5-1.27 1.65-3.97 3.79-5.99 4.75-2.02 0.96-5.92 1.75-8.67 1.75-3.53 0-5.95 0.65-8.25 2.23-2.2 1.51-5.18 2.36-9.25 2.63-4.08 0.27-7.12-0.11-9.5-1.19-1.93-0.87-6.09-4.64-9.26-8.38-3.17-3.73-5.75-7.58-5.75-8.54 0.01-0.96-1.51-5.01-3.36-9-1.85-3.99-4.19-9.73-5.19-12.75-1-3.02-2.41-6.62-3.12-8-0.72-1.37-1.31-3.06-1.31-3.75-0.01-0.69-0.44-2.04-0.97-3-0.53-0.96-2.15-4.45-3.6-7.75-1.45-3.3-3.27-7.46-4.04-9.25-0.77-1.79-1.4-4.15-1.4-5.25 0-1.1-0.4-2.79-0.89-3.75-0.49-0.96-1.39-4.45-2-7.75-0.7-3.83-1.11-23.89-1.16-105l3.01-6c1.66-3.3 3.01-6.68 3-7.5 0-0.82 1.08-4.43 2.41-8 1.32-3.57 4.18-9.2 6.35-12.5 2.17-3.3 4.58-6.27 5.36-6.61 0.78-0.33 3.09-3.93 5.14-8 2.04-4.06 3.73-7.73 3.75-8.14 0.02-0.41 1.94-3.52 4.28-6.9 2.34-3.38 5.37-6.94 6.75-7.9 1.37-0.96 4.52-2.06 7-2.44 2.69-0.41 6.31-0.2 9 0.53 2.88 0.79 5.7 2.53 7.83 4.85 1.83 1.98 4.86 6.65 6.75 10.36 2.39 4.71 3.42 8.11 3.42 11.25 0 2.47-0.79 6.15-1.75 8.17-0.96 2.02-3.17 4.83-4.9 6.25-2.15 1.76-3.66 4.32-4.76 8.08-1.1 3.75-1.61 9.4-1.6 17.75 0.01 6.74 0.44 13.04 0.97 14 0.54 0.96 1.89 3.89 3 6.5 1.12 2.61 2.04 5.65 2.04 6.75 0 1.1 0.49 3.24 1.08 4.75 0.59 1.51 1.48 13.1 1.98 25.75 0.5 12.65 1.33 24.8 1.86 27 0.53 2.2 1.22 5.24 1.52 6.75 0.36 1.77 2.07 3.77 4.81 5.63 2.34 1.58 6.28 3.57 8.75 4.41 2.47 0.85 9 3.8 14.5 6.54 5.5 2.75 12.03 5.8 14.5 6.78 3.34 1.32 8.11 1.87 32.5 2.49l-0.36-35.3c-0.34-32.78-0.23-35.58 1.5-39.25 1.18-2.52 3.5-4.98 6.36-6.77 3.22-2.01 5.78-2.8 13.5-2.77l-0.64-8.75c-0.36-4.93-1.34-10.07-2.24-11.76-0.89-1.65-1.62-3.9-1.63-5-0.01-1.1-0.58-3.57-1.27-5.5-0.69-1.93-3-6.87-8.99-18.5l0.5-18c0.34-12.55 0.91-18.82 1.88-20.69 0.77-1.48 2.51-4.84 3.89-7.46 1.37-2.62 4.27-6.03 6.43-7.56 3.17-2.26 4.99-2.79 9.5-2.77zm-121.14 205.79c1.49 1.26 4.17 3.63 5.96 5.25 3.1 2.81 3.67 2.94 12.5 2.95 7.87 0.01 9.03-0.19 7.75-1.35-0.82-0.74-3.97-2.09-7-2.98-3.03-0.9-7.19-2.77-9.25-4.16-2.06-1.38-3.97-2.52-4.25-2.52-0.28 0-2.19-1.13-4.25-2.5-2.06-1.38-4.15-2.51-4.64-2.5-0.49 0-0.59 1.24-0.21 2.75 0.37 1.51 1.9 3.79 3.39 5.06z"/>
	<path id="Rectum_rectum" class="s1" d="m137.08 51.77c-1.88 0.95-4.58 3.28-6 5.17-2.47 3.3-2.57 3.94-2.39 15.5 0.17 10.53-0.05 12.41-1.75 14.81-1.07 1.51-1.95 3.09-1.96 3.5-0.01 0.41-1.75 2.78-3.87 5.25-2.12 2.47-6.99 10.57-10.83 18-3.84 7.42-7.73 16.31-8.63 19.75-1.19 4.51-1.65 10.49-1.63 21.5 0 8.39 0.68 26.28 1.5 39.75 0.82 13.47 1.87 27.2 2.34 30.5 0.47 3.3 1.55 7.12 2.39 8.5 0.85 1.37 1.89 3.62 2.31 5 0.42 1.37 2.71 5.31 5.1 8.75 2.39 3.44 4.33 6.81 4.32 7.5-0.01 0.69-1.51 4.18-3.34 7.75-1.83 3.57-5.07 9.65-7.19 13.5l-3.85 7c-0.8 49.83-0.63 54.54 0.67 57.5 0.85 1.93 1.78 4.62 2.07 6 0.29 1.37 1.03 4.52 1.66 7 0.63 2.48 1.47 4.95 1.88 5.5 0.41 0.55 1.33 3.48 2.06 6.5 0.72 3.02 2.36 7.75 3.65 10.5 1.29 2.75 2.83 7.48 3.42 10.5 0.6 3.02 1.49 5.95 1.99 6.5 0.5 0.55 1.36 3.7 1.92 7 0.55 3.3 1.54 8.25 2.2 11 0.69 2.83 1.25 12.62 1.29 22.57 0.09 17.27 0.13 17.64 2.67 21 1.41 1.89 4.23 4.22 6.25 5.18 2.02 0.96 5.92 1.75 8.67 1.75 2.75 0 6.65-0.79 8.67-1.75 2.02-0.96 4.84-3.24 6.25-5.06l2.58-3.31c2.32 5 4.54 7.62 6.42 9.04 2.99 2.25 4.4 2.58 11.08 2.58 6.68 0 8.09-0.33 11.08-2.58 1.88-1.41 4.27-4.34 5.32-6.5 1.63-3.37 2-7.4 2.65-28.92 0.58-19.44 1.12-26 2.42-29.5 0.91-2.48 1.92-5.4 2.24-6.5 0.32-1.1 0.92-2.45 1.33-3 0.41-0.55 1.21-2.57 1.78-4.5 0.56-1.93 2-5.98 3.19-9 1.19-3.02 2.42-6.4 2.75-7.5 0.33-1.1 2.08-4.02 3.89-6.5 1.82-2.48 4.61-7.2 6.19-10.5 1.59-3.3 3.28-7.8 3.77-10 0.49-2.2 0.89-18.18 0.89-35.5 0-30.67-0.07-31.68-2.41-38.5-1.32-3.85-2.79-7.45-3.27-8-0.47-0.55-0.85-1.68-0.84-2.5 0-0.82-0.69-2.85-1.54-4.5-0.84-1.65-1.61-3.9-1.69-5-0.09-1.1 1.27-4.47 3.01-7.5 1.75-3.03 3.19-6.18 3.19-7 0.01-0.82 1.6-4.76 3.53-8.75 1.94-3.99 3.52-7.93 3.52-8.75 0-0.82 0.97-3.19 2.16-5.25 1.18-2.06 2.76-4.88 3.49-6.25 0.74-1.38 1.34-3.29 1.34-4.25 0.01-0.96 0.35-1.92 0.76-2.12 0.41-0.21 1.53-3.7 2.49-7.75 0.96-4.06 2.19-11.43 2.75-16.38 0.55-4.95 1-16.88 1-26.5 0-13.7-0.33-18.15-1.53-20.5-0.84-1.65-1.5-3.67-1.47-4.5 0.02-0.83-0.62-2.4-1.44-3.5-0.82-1.1-1.5-2.56-1.52-3.25-0.02-0.69-1.53-4.29-3.37-8-1.83-3.71-4.37-8.55-5.63-10.75-1.27-2.2-3.7-5.66-5.42-7.69-3.03-3.59-3.11-3.95-3.11-13.69v-10c-5.43-5.7-8.46-7.98-10.25-8.74-1.79-0.76-5.05-1.38-7.25-1.38-2.2 0-5.65 0.79-7.67 1.75-2.02 0.96-5.06 3.42-6.75 5.46l-3.08 3.71c-5.43-3.85-8.8-5.44-11-6.02-2.2-0.59-5.35-1.27-7-1.52-1.65-0.26-4.8-0.99-7-1.64-2.2-0.65-5.13-1.75-6.5-2.45-1.38-0.7-4.98-1.27-8-1.26-3.19 0.01-6.93 0.74-8.92 1.74z"/>
	<path id="Rectum_lesion" class="s2" d="m191.73 179.57c-0.89-0.57-2.09-0.47-2.85 0.24-0.77 0.71-0.88 1.84-0.26 2.67l10.45 14.29-9.3 2.84c-0.92 0.28-1.55 1.08-1.55 1.99 0 0.91 0.63 1.72 1.55 2l9.62 2.92-4.93 8.8c-0.46 0.81-0.3 1.81 0.4 2.46 0.7 0.65 1.75 0.8 2.62 0.38l9.39-4.63 3.11 9.02c0.3 0.86 1.16 1.45 2.13 1.45 0.97 0 1.83-0.59 2.13-1.45l3.12-9.02 9.38 4.63c0.87 0.42 1.93 0.28 2.63-0.38 0.69-0.66 0.85-1.65 0.4-2.46l-4.94-8.8 9.62-2.92c0.92-0.28 1.55-1.09 1.55-2 0-0.91-0.63-1.71-1.55-1.99l-9.94-3.02 2.4-6.16c0.3-0.77 0.09-1.63-0.52-2.21-0.62-0.58-1.53-0.77-2.35-0.49l-6.57 2.25-3.23-9.33c-0.3-0.86-1.16-1.45-2.13-1.45-0.97 0-1.83 0.59-2.13 1.45l-3.01 8.72z"/>
	<path id="Rectum_lymphnode" class="s3" d="m253.39 240.79c-0.54-0.57-1.37-0.78-2.13-0.58-0.77 0.19-1.36 0.79-1.56 1.54l-1.44 5.58-5.66-1.56c-0.77-0.21-1.59 0-2.15 0.54-0.55 0.55-0.77 1.35-0.55 2.1l1.59 5.54-5.7 1.42c-0.77 0.19-1.37 0.78-1.58 1.53-0.21 0.75 0.02 1.54 0.59 2.08l4.22 4.02-4.22 4.02c-0.57 0.54-0.79 1.34-0.59 2.09 0.2 0.75 0.81 1.33 1.58 1.53l5.7 1.41-1.59 5.54c-0.22 0.75 0 1.55 0.55 2.1 0.56 0.54 1.38 0.75 2.15 0.54l5.66-1.56 1.44 5.58c0.19 0.75 0.79 1.34 1.56 1.54 0.76 0.21 1.58-0.01 2.13-0.57l4.11-4.12 4.11 4.12c0.55 0.56 1.37 0.78 2.13 0.57 0.77-0.2 1.36-0.79 1.56-1.54l1.44-5.58 5.66 1.56c0.77 0.21 1.59 0 2.15-0.54 0.55-0.55 0.77-1.35 0.55-2.1l-1.59-5.54 5.7-1.41c0.77-0.19 1.37-0.78 1.58-1.53 0.21-0.75-0.02-1.55-0.58-2.09l-4.22-4.02 4.22-4.02c0.56-0.54 0.79-1.34 0.58-2.09-0.21-0.75-0.81-1.33-1.58-1.53l-5.7-1.41 1.59-5.54c0.22-0.75 0-1.55-0.55-2.1-0.56-0.54-1.38-0.75-2.15-0.54l-5.66 1.56-1.45-5.58c-0.19-0.75-0.79-1.34-1.56-1.54-0.76-0.21-1.58 0.01-2.12 0.58l-4.11 4.12z"/>
</svg>