<svg version="1.2" xmlns="http://www.w3.org/2000/svg" viewBox="0 0 207 280" width="207" height="280">
	<style>
		.s0 { fill: #cece22 } 
		.s1 { fill: #b3b3b3 } 
		.s2 { fill: #c35c5c } 
		.s3 { opacity: .92;fill: #011ece } 
	</style>
	<path id="Shoulder_joint" fill-rule="evenodd" class="s0" d="m145.25 39.11c6.36-0.1 6.93 0.08 9.94 3.14 3.12 3.18 3.18 3.39 2.49 9.75-0.51 4.63-1.55 7.8-3.61 11-1.59 2.47-3.95 7.5-7.57 17.85l2.5 1.92c2.04 1.58 2.75 3.47 5.26 18.73l-5.39 4 3.22 8c3.03 7.54 3.24 8.86 3.59 23 0.2 8.25 0.6 15.22 0.87 15.5 0.28 0.28 0.49 1.51 0.48 2.75-0.02 1.24-0.93 4.72-2.03 7.75-1.1 3.03-2.71 6.18-3.57 7-0.87 0.82-2.89 1.5-4.5 1.5-1.93 0-3.11 0.6-3.45 1.75-0.28 0.96-1.07 2.71-1.75 3.89-0.67 1.17-2.35 3.35-3.73 4.83-2.12 2.28-2.46 3.52-2.25 8.11 0.22 4.81-0.08 5.76-2.67 8.42-2.49 2.56-3.68 3-8 3-4.57 0-5.38-0.35-8.08-3.5-1.65-1.93-3.29-4.74-3.64-6.25-0.35-1.51-0.41-5-0.12-7.75 0.29-2.75 1.37-6.57 2.4-8.5 1.03-1.93 3.35-5.53 5.15-8 1.81-2.47 5.18-7.35 7.5-10.83 2.31-3.48 4.79-7.3 5.51-8.5 0.88-1.47 1.15-4.59 0.86-9.67-0.25-4.13-1.41-10.42-2.6-14-1.18-3.58-2.98-8.3-4-10.5-1.02-2.2-2.33-5.35-2.92-7-0.58-1.65-1.3-4.69-1.6-6.75-0.4-2.81-1.23-4.09-3.29-5.1-1.51-0.75-5.67-1.92-9.25-2.6-3.58-0.68-9.88-2.87-14-4.87-4.13-2-8.74-4.65-10.25-5.91-2.04-1.69-2.75-3.17-2.75-5.77 0-1.92-0.11-3.51-0.25-3.51-0.14-0.01-2.16 0.89-4.5 2-2.34 1.1-4.7 2.01-5.25 2.01-0.55 0-3.81 1.43-7.25 3.18-3.44 1.75-8.84 5.57-12 8.5-4.95 4.58-6.31 5.32-9.75 5.32-3.24 0-4.67-0.67-7.5-3.5-2.73-2.73-3.51-4.32-3.53-7.25-0.03-2.62 0.8-4.82 2.75-7.3 1.53-1.95 4.58-5.16 6.78-7.14 2.2-1.98 7.84-5.67 12.54-8.2 4.69-2.54 9.53-4.61 10.75-4.61 1.21 0 2.43-0.45 2.71-1 0.28-0.55 1.4-1 2.5-1 1.1 0 2-0.45 2-1 0-0.55 3.04-1.91 6.75-3.02 3.71-1.11 8.3-2.01 10.2-2 1.9 0.01 4.6-0.47 6-1.07 1.4-0.6 6.94-1.95 12.3-3 5.36-1.05 12.34-1.94 15.5-1.97 3.16-0.03 7.55-0.43 9.75-0.88 2.2-0.46 7.04-0.88 10.75-0.95zm-34.5 26.07c-2.05 1.08-1.45 1.44 6.75 3.99 4.95 1.54 9.11 2.81 9.25 2.81 0.14 0.01 0.51-1.44 0.82-3.23 0.32-1.79 0.66-4.04 0.76-5 0.1-0.96-0.27-1.69-0.82-1.62-0.56 0.07-4.05 0.52-7.76 1-3.71 0.48-7.76 1.4-9 2.05z"/>
	<path id="GH_joint" class="s1" d="m64.5 72.45c-3.3 0.69-7.13 1.76-8.5 2.37-1.38 0.61-3.21 1.69-4.09 2.4-0.87 0.7-2.78 3.19-4.25 5.53-1.46 2.34-2.66 5.6-2.66 7.25 0 2.56-0.63 3.29-4.25 4.95-2.34 1.07-6.89 2.75-10.11 3.75-4.07 1.25-6.8 2.87-8.96 5.3-2.39 2.7-3.19 4.65-3.48 8.5-0.21 2.75 0.07 11.53 0.63 19.5 0.94 13.46 1.31 15.25 5.17 25 2.28 5.78 4.6 13.2 5.14 16.5 0.55 3.3 1.6 6.68 2.34 7.5 0.74 0.82 2.02 4.2 2.84 7.5 0.81 3.3 1.98 9.6 2.6 14 0.62 4.4 1.58 15.2 2.15 24 0.56 8.8 1.41 18.7 1.89 22 0.48 3.3 0.92 11.62 0.97 18.5 0.06 7.91 0.56 13.42 1.37 15 1.26 2.5 1.27 2.5 17.73 2.74 9.06 0.13 18.59 0.36 21.18 0.5 3.1 0.17 5.24-0.25 6.3-1.24 0.98-0.92 2.15-5.17 3.03-11 0.8-5.23 3.08-16.02 5.07-24 1.99-7.97 5.31-19 7.37-24.5 2.06-5.5 5.41-15.4 7.46-22 2.04-6.6 4.75-13.57 6.01-15.5 1.56-2.39 5.4-5.25 12.06-9 6.59-3.71 11.39-7.29 14.78-11 2.76-3.03 5.59-6.85 6.29-8.5 0.71-1.65 1.58-5.93 1.96-9.5 0.45-4.31 0.16-9.36-0.86-15-0.84-4.68-1.83-10.97-2.19-14-0.36-3.12-2.28-8.96-4.43-13.5-2.08-4.4-6.01-10.47-8.75-13.5-3.61-4-7.47-6.8-14.14-10.25-5.04-2.61-10.97-5.88-13.17-7.25-2.2-1.38-5.91-2.94-8.25-3.48-2.34-0.53-10.1-0.94-17.25-0.9-7.15 0.04-15.7 0.64-19 1.33zm97.06 31.62c-2.19 1.65-2.72 2.83-2.62 5.75 0.07 2.03 0.77 6.6 1.56 10.18 0.79 3.57 1.45 8.53 1.47 11 0.02 2.47-0.84 9.45-1.92 15.5-1.08 6.05-2.61 13.47-3.39 16.5-0.79 3.03-2.44 7.53-3.67 10-1.52 3.04-2.04 5.39-1.62 7.25 0.35 1.51 1.42 2.94 2.38 3.17 0.96 0.22 4 0.72 6.75 1.1 4.07 0.56 5.56 1.36 8 4.25 1.65 1.95 5.25 5.99 8 8.98 2.75 2.99 7.47 6.95 10.5 8.81 4.02 2.46 6.71 3.39 10 3.43 3.44 0.05 5-0.47 6.63-2.21 1.17-1.26 3.12-4.53 4.34-7.28 1.22-2.75 3.36-8.38 4.77-12.5 2.03-5.94 2.66-10.1 3.04-20 0.26-6.88 0.18-14.53-0.19-17-0.36-2.47-1.52-5.63-2.57-7-1.79-2.35-2.48-2.5-11.21-2.52-5.12-0.02-10.21-0.44-11.31-0.94-1.1-0.49-2.81-1.83-3.8-2.97-0.99-1.14-2.24-3.87-2.78-6.07-0.55-2.2-1.62-5.8-2.4-8-0.78-2.2-1.72-5.8-2.1-8-0.38-2.2-1.3-5.24-2.05-6.75-0.76-1.51-2.61-3.67-4.12-4.78-1.51-1.12-4.14-2.02-5.85-2-1.7 0.01-4.33 0.96-5.84 2.1z"/>
	<path id="AC_joint" class="s1" d="m138 7.03c-1.41 0.49-3.32 2.53-4.38 4.67-1.46 2.95-1.75 4.98-1.25 9.05 0.34 2.89 1.53 7.05 2.63 9.25 1.18 2.36 3.74 5.1 6.25 6.69 2.86 1.81 6.05 2.83 9.75 3.11 3.03 0.24 12.47-0.1 21-0.75 10.03-0.76 16.73-1.76 19-2.81 1.93-0.9 4.3-2.56 5.28-3.69 1.07-1.23 1.78-3.64 1.77-6.05 0-2.89-0.63-4.56-2.28-6.04-1.25-1.12-5.42-3.3-9.27-4.84-3.85-1.55-11.05-3.64-16-4.66-4.95-1.01-11.47-2.54-14.5-3.4-3.03-0.86-7.75-1.53-10.5-1.49-2.75 0.05-6.13 0.48-7.5 0.96zm-35 12.95c-3.03 1.59-10.83 5.51-17.34 8.71-7.72 3.78-12.92 7.03-14.91 9.31-2.66 3.05-2.98 4.02-2.45 7.5 0.33 2.2 1.41 4.55 2.4 5.22 0.99 0.67 4.05 1.48 6.8 1.81 2.75 0.32 6.35 0.27 8-0.11 1.65-0.39 5.14-1.77 7.75-3.06 2.61-1.3 7.9-2.81 11.75-3.36 3.85-0.55 8.46-1.84 10.25-2.86l3.25-1.86c-0.53-15.33-1.09-20.79-1.59-22.03-0.72-1.78-1.69-2.24-4.66-2.21-2.14 0.02-6.11 1.28-9.25 2.94z"/>
	<path id="Rotator_cuff" class="s2" d="m191.5 44.02c-2.75 0.42-10.4 1.08-17 1.47-6.6 0.39-14.47 1.32-17.5 2.07-3.03 0.75-10.45 1.83-16.5 2.4-6.13 0.58-13.32 1.92-16.25 3.04-3.03 1.15-7.68 2-11 2.01-3.16 0-10.92 0.68-17.25 1.51-6.33 0.83-13.97 1.93-17 2.46-3.03 0.52-8.2 1.38-11.5 1.9-3.3 0.52-8.48 1.86-11.5 2.98-3.54 1.3-7.22 3.74-10.34 6.83-2.66 2.65-6.16 6.84-7.77 9.31-1.6 2.47-3.66 6.75-4.56 9.5-1.52 4.64-1.52 5.2 0.02 7.75 1.21 2.02 2.44 2.75 4.65 2.75 2.11 0 3.6-0.81 5.03-2.75 1.12-1.51 2.02-3.43 1.99-4.25-0.03-0.83 1.23-3.53 2.8-6 1.56-2.47 4.61-6.1 6.76-8.06 2.16-1.96 6.17-4.29 8.92-5.17 2.75-0.89 7.25-1.88 10-2.22 2.75-0.33 9.28-1.31 14.5-2.18 8.6-1.43 9.88-1.43 13.5-0.03 2.2 0.86 7.6 2.45 12 3.53 4.4 1.09 12.72 4.26 18.5 7.04 5.78 2.79 13.28 6.98 16.68 9.33 3.41 2.34 9.71 6.27 14 8.73 4.3 2.46 14.79 6.86 23.32 9.77 8.53 2.91 17.07 5.3 19 5.32 2.79 0.03 4.03-0.64 6.1-3.26 1.45-1.83 2.91-5.3 3.28-7.8 0.37-2.47 0.15-7.88-0.49-12-0.63-4.13-1.21-15.3-1.27-24.84l-0.12-17.33c-4.97-4.37-6.51-4.8-10.75-4.7-2.89 0.08-7.5 0.48-10.25 0.89zm-167.15 198.92c-1.18 0.5-2.87 1.96-3.76 3.24-0.88 1.28-1.6 3.9-1.59 5.82 0.01 1.93 0.35 5.28 0.76 7.45 0.41 2.2 1.96 5.19 3.49 6.75 2.22 2.26 3.64 2.8 7.33 2.8 3.77 0 5.09-0.53 7.5-3 2.31-2.38 2.92-3.88 2.9-7.25-0.02-2.34-0.46-6.05-0.98-8.25-0.53-2.2-1.75-4.81-2.73-5.8-0.99-1.01-3.75-2-6.27-2.24-2.47-0.24-5.47-0.03-6.65 0.48z"/>
	<path id="Glenoid_labrum" class="s3" d="m146.19 98.23c-0.6 0.7-1.4 2.62-1.77 4.27-0.57 2.55-0.12 3.56 2.96 6.75 2.82 2.92 3.74 4.8 4.15 8.5 0.3 2.61 0.98 7.22 1.53 10.25 0.54 3.03 1.26 9.32 1.59 14 0.48 6.84 0.18 10.12-1.53 16.75-1.47 5.72-2.58 8.25-3.62 8.25-0.82 0-3.13 1.46-5.13 3.25-3.35 3-3.58 3.56-2.98 7.25 0.35 2.2 1.2 4.58 1.88 5.29 0.68 0.72 2.24 1.28 3.48 1.25 1.24-0.02 3.71-0.66 5.5-1.41 1.79-0.76 4.27-2.44 5.52-3.75 1.24-1.31 3.17-5.53 4.27-9.38 1.1-3.85 2.69-10.38 3.52-14.5 1.41-6.99 1.37-8.58-0.6-23.5-1.16-8.8-2.41-19.08-2.78-22.85-0.38-3.76-1.13-7.17-1.68-7.57-0.55-0.4-3.03-1.29-5.5-1.97-2.47-0.68-5.22-1.44-6.11-1.7-0.88-0.25-2.1 0.12-2.7 0.82z"/>
	<path id="Biceps" class="s2" d="m69.5 72.82c-3.3 1.54-8.06 4.81-10.58 7.25-3.09 2.99-5.42 6.54-7.16 10.93-1.42 3.58-3.75 10.78-5.18 16-1.42 5.23-3.05 14.45-3.63 20.5-0.57 6.05-1.45 17.75-1.95 26-0.5 8.25-1.2 19.5-1.56 25-0.59 9.11-1.02 10.75-4.89 18.5-2.34 4.68-5.04 11.2-6 14.5-0.97 3.3-2.16 7.13-2.66 8.5-0.5 1.38-2.51 8.57-4.46 16-1.95 7.43-4.41 17.32-5.45 22-1.04 4.68-2.21 11.88-2.6 16-0.67 7.17-0.6 7.58 1.71 9.21 1.32 0.94 5.33 2.13 8.91 2.64 3.58 0.51 8.25 0.64 10.39 0.29 2.48-0.41 4.58-1.55 5.79-3.14 1.04-1.37 2.32-5.2 2.84-8.5 0.52-3.3 2.07-19.27 3.44-35.5 1.37-16.22 2.49-32.87 2.5-37 0-4.12 0.68-16.5 1.5-27.5 0.82-11 1.99-27.2 2.61-36 0.61-8.8 1.94-19.15 2.95-23 1.02-3.85 2.48-9.25 3.26-12 0.78-2.75 2.56-7.25 3.94-10 1.88-3.72 4.04-6 8.41-8.89l5.87-3.89c16.47 1.13 24.59 2.62 33 4.91 7.15 1.94 13.9 4.12 15 4.83 1.1 0.72 5.04 4.28 8.75 7.92 4.2 4.12 7.6 6.63 9 6.65 1.24 0.02 3.03-0.77 3.97-1.75 0.95-0.98 1.74-2.79 1.75-4.03 0.02-1.5-2.54-4.77-7.72-9.85-4.26-4.18-9.32-8.38-11.25-9.34-1.93-0.96-5.75-2.32-8.5-3.03-2.75-0.7-7.03-1.93-9.5-2.73-2.47-0.8-9.67-2.09-16-2.88-6.33-0.78-13.53-1.42-16-1.42-2.84 0-6.71 1.04-10.5 2.82z"/>
</svg>