<svg version="1.2" xmlns="http://www.w3.org/2000/svg" viewBox="0 0 401 562" width="401" height="562">
	<style>
		.s0 { fill: #467b43 } 
		.s1 { fill: #f67fac } 
		.s2 { fill: #d8cb5d } 
		.s3 { fill: #ffff00 } 
		.s4 { fill: #a60d8f } 
	</style>
	<path id="Prostate_urinary" class="s0" d="m351.95 62.3c-1.4 0.66-5.65 3.67-9.43 6.7-3.78 3.03-9.39 8.04-12.45 11.14-3.06 3.1-9.84 8.78-15.07 12.62-5.23 3.85-12.2 8.37-15.5 10.05-3.3 1.68-8.48 4.25-11.5 5.71-3.02 1.46-8.65 4.13-12.5 5.94-3.85 1.81-8.35 3.76-10 4.33-1.65 0.57-7.27 2.68-12.5 4.7-5.22 2.02-12.2 4.93-15.5 6.46-3.3 1.53-8.47 3.35-11.5 4.04-3.02 0.69-6.62 1.62-8 2.06-1.37 0.44-4.19 1.06-6.25 1.37-2.21 0.34-5.25 1.91-7.41 3.83-2.01 1.79-4.26 4.71-5 6.5-0.74 1.79-1.34 5.05-1.34 7.25 0 2.2 0.48 5.24 1.07 6.75 0.58 1.51 2.05 3.81 3.25 5.1 1.2 1.29 3.87 3.2 5.93 4.25 2.06 1.04 5.55 1.9 7.75 1.9 2.2 0 5.01-0.41 6.25-0.9 1.24-0.5 5.63-1.65 9.75-2.56 4.13-0.91 9.75-2.49 12.5-3.52 2.75-1.04 7.36-3.04 10.25-4.45 2.89-1.41 5.81-2.57 6.5-2.58 0.69 0 2.38-0.6 3.75-1.32 1.38-0.73 5.2-2.25 8.5-3.4 3.3-1.14 7.8-2.86 10-3.82 2.2-0.96 7.38-3.29 11.5-5.18 4.13-1.89 9.3-4.36 11.5-5.49 2.2-1.13 6.93-3.56 10.5-5.41 3.57-1.85 8.3-4.67 10.5-6.28 2.2-1.61 6.93-4.94 10.5-7.41 3.57-2.47 9.69-7.57 13.59-11.33 3.91-3.77 10.32-9.44 14.25-12.6 4.28-3.43 7.97-7.36 9.16-9.75 1.1-2.2 2-5.8 2-8 0-2.2-0.85-5.69-1.89-7.75-1.05-2.06-2.73-4.48-3.75-5.38-1.02-0.9-3.32-2.36-5.11-3.25-1.79-0.89-5.16-1.6-7.5-1.57-2.34 0.02-5.4 0.58-6.8 1.25zm-332.45 2.74c-1.65 0.47-4.71 2.57-6.79 4.66-2.09 2.09-4.22 5.38-4.75 7.3-0.52 1.92-0.95 4.51-0.95 5.75-0.01 1.24 0.58 3.71 1.31 5.5 0.73 1.79 4.43 7.3 8.22 12.25 3.8 4.95 10.51 12.74 14.93 17.31 4.42 4.57 9.15 8.57 10.53 8.89 1.38 0.32 5.65 2.14 9.5 4.04 4.29 2.11 9.71 3.84 14 4.46 3.85 0.56 11.72 2.6 17.5 4.53 5.78 1.93 14.1 5.26 18.5 7.38 4.4 2.13 8.56 3.88 9.25 3.88 0.69 0.01 4.96 4.08 9.5 9.06 4.54 4.98 9.94 9.93 12 11 2.06 1.07 5.55 1.95 7.75 1.95 2.2 0 5.69-0.86 7.75-1.9 2.06-1.05 4.73-2.96 5.93-4.25 1.2-1.29 2.67-3.59 3.25-5.1 0.59-1.51 1.07-4.55 1.07-6.75 0-2.2-0.59-5.46-1.32-7.25-0.72-1.79-6.91-8.94-13.75-15.9-9.66-9.83-13.21-12.82-15.93-13.39-1.92-0.41-7.66-2.7-12.75-5.1-5.09-2.4-12.06-5.26-15.5-6.37-3.44-1.1-8.72-2.74-11.75-3.63-3.03-0.89-6.51-2.01-7.75-2.49-1.24-0.48-3.6-0.87-5.25-0.87-1.65 0-5.92-1.35-9.5-3-4.77-2.2-7.83-4.53-11.47-8.75-2.73-3.16-7.36-8.9-10.27-12.75-3.6-4.75-6.75-7.73-9.78-9.26-2.47-1.24-5.83-2.21-7.48-2.16-1.65 0.06-4.35 0.49-6 0.96zm74.53 291.35c-1.91 0.73-4.72 2.96-6.25 4.96-1.53 2.01-2.77 4.21-2.75 4.9 0.01 0.69-1.45 3.24-3.25 5.67-1.8 2.44-4.49 6.04-5.96 8-1.48 1.97-4.24 6.28-6.14 9.58-1.9 3.3-3.76 7.35-4.13 9-0.37 1.65-0.2 4.91 0.39 7.25 0.58 2.34 2.3 5.66 3.81 7.38 1.51 1.73 4.1 3.82 5.75 4.65 1.65 0.83 5.25 1.52 8 1.52 2.75 0 6.35-0.7 8-1.56 1.65-0.85 3.94-2.61 5.08-3.89 1.15-1.29 3.38-4.6 4.96-7.35 1.58-2.75 4.73-7.25 6.99-10 2.27-2.75 5.78-8.15 7.82-12 2.61-4.95 3.69-8.25 3.67-11.25-0.01-2.34-0.5-5.49-1.08-7-0.59-1.51-2.28-4.04-3.75-5.62-1.48-1.58-4.15-3.5-5.94-4.25-1.79-0.76-5.16-1.36-7.5-1.34-2.34 0.02-5.81 0.63-7.72 1.35z"/>
	<path id="Prostate_prostate" class="s1" d="m224.5 135.15c-2.2 0.52-6.25 2.7-9 4.85-2.75 2.14-7.47 6.39-10.5 9.46l-5.5 5.56c-10.07 0.01-13.45-0.47-14-1.06-0.68-0.72-11.68-0.97-34.57-0.76l-33.58 0.3c-6.47 4.26-9.48 5.5-10.85 5.5-1.38 0-4.17 0.79-6.21 1.75-2.31 1.09-5.51 4.2-8.5 8.25-2.67 3.62-5.12 8.21-5.54 10.37-0.41 2.13-1.09 4.04-1.5 4.25-0.41 0.21-0.76 1.84-0.77 3.63-0.01 1.79-1.36 5.61-3 8.5-1.64 2.89-3.61 8.06-4.38 11.5-0.78 3.44-2.12 10.53-2.98 15.75-0.87 5.22-1.84 14-2.16 19.5-0.32 5.5-1.03 12.03-1.59 14.5-0.55 2.48-1.26 7.43-1.57 11-0.31 3.57 0 12.35 0.69 19.5 1.03 10.66 1.78 14.08 4.15 19 1.59 3.3 3.33 8.93 3.86 12.5 0.71 4.71 1.76 7.47 3.83 10 1.57 1.93 3.54 5.07 4.39 7 0.85 1.93 2.16 5.04 2.91 6.92 0.75 1.88 3.62 5.43 6.37 7.89 2.75 2.47 6.58 5.12 8.5 5.9 1.92 0.78 4.96 2.06 6.75 2.85 1.79 0.79 4.04 1.44 5 1.44 0.96-0.01 3.33 0.88 5.25 1.97 1.92 1.09 6.2 3.31 9.5 4.92 3.3 1.62 7.57 3.63 9.5 4.47 2.11 0.92 8.45 1.81 16 2.23 9.9 0.55 14.48 0.34 22-1.04 5.22-0.96 12.2-2.34 15.5-3.07 3.3-0.73 8.19-1.7 10.87-2.15 2.68-0.46 5.04-1.17 5.25-1.58 0.21-0.41 1.17-0.75 2.13-0.76 0.96 0 2.87-0.6 4.25-1.34 1.37-0.73 4.3-2.37 6.5-3.62 2.2-1.26 5.57-3.46 7.5-4.88 1.93-1.42 4.96-3.84 6.75-5.37 1.79-1.53 4.04-2.78 5-2.79 0.96-0.01 3.78-1.59 6.25-3.53 2.47-1.94 4.72-3.5 5-3.46 0.28 0.03 3.44-3.44 7.03-7.72 3.59-4.28 8.11-10.03 10.04-12.78 1.93-2.75 5.38-8.82 7.65-13.5 2.28-4.68 4.84-10.19 5.71-12.25 0.86-2.06 1.57-4.43 1.57-5.25 0-0.82 1.31-5.44 2.92-10.25 1.61-4.81 3.88-11 5.05-13.75 1.17-2.75 3.03-8.6 4.14-13 1.1-4.4 2.92-11.82 4.05-16.5 1.12-4.68 2.27-12.55 2.56-17.5 0.36-6.35 0.05-10.91-1.07-15.5-0.87-3.57-2.27-8.19-3.12-10.25-0.84-2.06-2.02-5.89-2.62-8.5-0.59-2.61-2.86-7.22-5.02-10.25-2.17-3.03-6.37-7.53-9.33-10-2.96-2.47-9.77-6.75-15.14-9.5-7.19-3.68-11.23-6.54-15.34-10.86-3.07-3.22-7.27-6.7-9.33-7.75-2.26-1.13-5.64-1.85-8.5-1.79-2.61 0.06-6.55 0.53-8.75 1.05z"/>
	<path id="Prostate_seminal" class="s2" d="m346.43 68.8c-2.16 1.54-4.72 4.47-5.68 6.5-1.01 2.13-1.75 6.04-1.75 9.2v5.5c-11.53-0.05-13.12 0.38-16.5 2.77-2.2 1.56-4.79 4.5-5.75 6.53-0.96 2.04-1.75 5.95-1.75 8.7 0 4.53-0.21 5-2.25 4.97-1.24-0.01-4.05 1.25-6.25 2.8-2.2 1.56-4.79 4.5-5.75 6.53-0.96 2.04-1.74 5.61-1.72 7.95 0.03 3.89-0.39 4.61-5 8.5-2.77 2.34-5.71 5.6-6.53 7.25-0.82 1.65-1.79 6.49-2.14 10.75-0.55 6.71-0.35 8.32 1.5 12 1.18 2.34 3.71 5.26 5.63 6.5 3.28 2.12 3.49 2.57 3.49 7.75 0.01 3.41 0.72 6.83 1.86 9 1.05 1.98 4.64 5.44 8.26 7.98 5.5 3.85 7.24 4.54 12.4 4.88 4.45 0.3 7.01-0.09 9.92-1.48 2.16-1.03 5.07-3.45 6.47-5.38 1.39-1.93 2.78-5.42 3.07-7.76 0.46-3.6 0.89-4.26 2.79-4.25 1.24 0 3.9-0.78 5.92-1.74 2.02-0.96 4.84-3.23 6.25-5.05 2.29-2.92 3.12-3.29 7.33-3.25 2.61 0.03 6.4-0.74 8.42-1.7 2.02-0.96 4.84-3.29 6.25-5.18 1.84-2.45 2.72-5.1 3.08-9.22 0.45-5.15 0.77-5.85 3-6.39 1.37-0.34 3.85-1.63 5.5-2.86 1.65-1.24 3.79-3.91 4.75-5.93 1.2-2.52 1.77-6.26 1.82-11.92 0.04-4.54 0.16-11.66 0.25-15.83 0.17-6.96-0.06-7.9-2.75-11.5-2.6-3.5-2.93-4.74-3-11.5-0.06-6.51-0.43-8.06-2.64-11-1.41-1.88-4.67-4.43-7.25-5.67-2.57-1.24-5.13-3.15-5.68-4.25-0.55-1.1-2.69-3.13-4.75-4.5-3.06-2.05-4.97-2.51-10.32-2.5-5.6 0-7.16 0.42-10.5 2.8z"/>
	<path id="Prostate_lymphnode" class="s3" d="m267.76 365.11c-0.7-0.79-1.75-1.1-2.73-0.82-0.98 0.28-1.73 1.12-1.99 2.18l-1.84 7.89-7.23-2.21c-0.97-0.3-2.02 0-2.73 0.77-0.71 0.77-0.99 1.91-0.71 2.97l2.04 7.82-7.29 2.01c-0.98 0.27-1.74 1.1-2.01 2.16-0.27 1.06 0.02 2.18 0.76 2.94l5.38 5.68-5.38 5.68c-0.74 0.76-1.02 1.89-0.76 2.95 0.25 1.06 1.03 1.88 2.01 2.16l7.29 2-2.04 7.82c-0.28 1.06 0 2.2 0.71 2.97 0.71 0.77 1.76 1.07 2.73 0.77l7.23-2.21 1.84 7.89c0.24 1.06 1.01 1.89 1.99 2.18 0.98 0.29 2.02-0.03 2.73-0.81l5.24-5.83 5.24 5.83c0.71 0.78 1.75 1.1 2.73 0.81 0.98-0.29 1.73-1.12 1.99-2.18l1.84-7.89 7.23 2.21c0.97 0.3 2.02 0 2.73-0.77 0.71-0.77 0.99-1.91 0.71-2.97l-2.04-7.82 7.29-2c0.98-0.26 1.74-1.1 2.01-2.16 0.27-1.06-0.02-2.18-0.74-2.95l-5.39-5.68 5.39-5.68c0.72-0.77 1.01-1.89 0.74-2.95-0.27-1.06-1.03-1.88-2.01-2.16l-7.29-2 2.04-7.82c0.28-1.06 0-2.2-0.71-2.97-0.71-0.77-1.76-1.07-2.73-0.77l-7.23 2.21-1.85-7.89c-0.25-1.06-1.01-1.89-1.99-2.18-0.98-0.29-2.02 0.03-2.72 0.82l-5.24 5.83z"/>
	<path id="Prostate_lesion" class="s4" d="m224.94 245.06c-1.4-0.95-3.26-0.77-4.46 0.41-1.19 1.18-1.37 3.05-0.4 4.44l16.3 23.78-14.5 4.71c-1.44 0.47-2.42 1.81-2.42 3.32 0 1.52 0.98 2.86 2.42 3.32l15.01 4.87-7.7 14.64c-0.71 1.36-0.47 3.02 0.62 4.1 1.1 1.07 2.74 1.34 4.1 0.62l14.64-7.7 4.86 15.01c0.47 1.44 1.81 2.42 3.32 2.42 1.52 0 2.86-0.98 3.32-2.42l4.86-15.01 14.65 7.7c1.35 0.72 3.01 0.47 4.09-0.62 1.08-1.1 1.34-2.74 0.63-4.1l-7.7-14.64 15-4.87c1.45-0.46 2.42-1.8 2.42-3.32 0-1.51-0.97-2.85-2.42-3.32l-15.5-5.02 3.74-10.25c0.47-1.28 0.15-2.71-0.81-3.67-0.96-0.96-2.39-1.28-3.67-0.82l-10.25 3.75-5.04-15.53c-0.46-1.44-1.8-2.41-3.32-2.41-1.51 0-2.85 0.97-3.32 2.41l-4.7 14.51z"/>
</svg>